<svg width="240" height="133" viewBox="0 0 240 133" fill="none" xmlns="http://www.w3.org/2000/svg">
<path d="M121.5 18.5C65.2823 25.5257 41.5829 42.2409 17 101C17 101 10.2595 92.2353 5.50001 87C0.499949 81.5 21.2985 44.8677 48.5 28C70.8585 14.1355 112.646 -1.50003 117 5.50001C119.97 10.2739 121.5 18.5 121.5 18.5Z" fill="#FBB040" stroke="#594A42" stroke-width="6"/>
<path d="M22.5532 66.2169C22.0313 66.8559 21.2073 67.0544 20.722 66.658L15.5161 62.4062C15.0308 62.0098 15.0608 61.1628 15.5826 60.5238C16.1045 59.8848 16.9285 59.6863 17.4138 60.0827L22.6197 64.3345C23.105 64.7309 23.0751 65.5779 22.5532 66.2169Z" fill="#594A42" stroke="#594A42" stroke-width="3"/>
<path d="M40.8229 44.9432C40.1812 45.4617 39.334 45.4872 38.9402 44.9998L34.716 39.7715C34.3222 39.2841 34.525 38.4612 35.1668 37.9427C35.8085 37.4242 36.6557 37.3988 37.0495 37.8861L41.2737 43.1144C41.6675 43.6018 41.4646 44.4248 40.8229 44.9432Z" fill="#594A42" stroke="#594A42" stroke-width="3"/>
<path d="M66.228 28.0196C65.444 28.2765 64.643 27.9995 64.4478 27.4041L62.3548 21.0168C62.1596 20.4214 62.6414 19.724 63.4254 19.4671C64.2094 19.2102 65.0105 19.4872 65.2056 20.0826L67.2987 26.4699C67.4938 27.0654 67.012 27.7627 66.228 28.0196Z" fill="#594A42" stroke="#594A42" stroke-width="3"/>
<path d="M92.7994 17.0793C92.003 17.2948 91.2176 16.9763 91.0538 16.3715L89.2977 9.88348C89.1339 9.27866 89.6516 8.60745 90.4479 8.3919C91.2442 8.17634 92.0297 8.49483 92.1934 9.09965L93.9496 15.5877C94.1133 16.1925 93.5957 16.8637 92.7994 17.0793Z" fill="#594A42" stroke="#594A42" stroke-width="3"/>
</svg>
