<svg width="240" height="137" viewBox="0 0 240 137" fill="none" xmlns="http://www.w3.org/2000/svg">
<path d="M14.75 98.5C18.8921 98.5 22.25 94.6385 22.25 89.875C22.25 85.1115 18.8921 81.25 14.75 81.25C10.6079 81.25 7.25 85.1115 7.25 89.875C7.25 94.6385 10.6079 98.5 14.75 98.5Z" fill="#FBB040"/>
<path d="M14.75 100.75C9.35 100.75 5 95.875 5 89.875C5 83.875 9.35 79 14.75 79C20.15 79 24.5 83.875 24.5 89.875C24.5 95.875 20.15 100.75 14.75 100.75ZM14.75 83.5C11.825 83.5 9.5 86.35 9.5 89.875C9.5 93.4 11.825 96.25 14.75 96.25C17.675 96.25 20 93.4 20 89.875C20 86.35 17.675 83.5 14.75 83.5Z" fill="#594A42"/>
<path d="M35.75 61.5C39.8921 61.5 43.25 57.6385 43.25 52.875C43.25 48.1115 39.8921 44.25 35.75 44.25C31.6079 44.25 28.25 48.1115 28.25 52.875C28.25 57.6385 31.6079 61.5 35.75 61.5Z" fill="#FBB040"/>
<path d="M35.75 63.75C30.35 63.75 26 58.875 26 52.875C26 46.875 30.35 42 35.75 42C41.15 42 45.5 46.875 45.5 52.875C45.5 58.875 41.15 63.75 35.75 63.75ZM35.75 46.5C32.825 46.5 30.5 49.35 30.5 52.875C30.5 56.4 32.825 59.25 35.75 59.25C38.675 59.25 41 56.4 41 52.875C41 49.35 38.675 46.5 35.75 46.5Z" fill="#594A42"/>
<path d="M67.75 36.5C71.8921 36.5 75.25 32.6385 75.25 27.875C75.25 23.1115 71.8921 19.25 67.75 19.25C63.6079 19.25 60.25 23.1115 60.25 27.875C60.25 32.6385 63.6079 36.5 67.75 36.5Z" fill="#FBB040"/>
<path d="M67.75 38.75C62.35 38.75 58 33.875 58 27.875C58 21.875 62.35 17 67.75 17C73.15 17 77.5 21.875 77.5 27.875C77.5 33.875 73.15 38.75 67.75 38.75ZM67.75 21.5C64.825 21.5 62.5 24.35 62.5 27.875C62.5 31.4 64.825 34.25 67.75 34.25C70.675 34.25 73 31.4 73 27.875C73 24.35 70.675 21.5 67.75 21.5Z" fill="#594A42"/>
<path d="M108.75 23.5C112.892 23.5 116.25 19.6385 116.25 14.875C116.25 10.1115 112.892 6.25 108.75 6.25C104.608 6.25 101.25 10.1115 101.25 14.875C101.25 19.6385 104.608 23.5 108.75 23.5Z" fill="#FBB040"/>
<path d="M108.75 25.75C103.35 25.75 99 20.875 99 14.875C99 8.875 103.35 4 108.75 4C114.15 4 118.5 8.875 118.5 14.875C118.5 20.875 114.15 25.75 108.75 25.75ZM108.75 8.5C105.825 8.5 103.5 11.35 103.5 14.875C103.5 18.4 105.825 21.25 108.75 21.25C111.675 21.25 114 18.4 114 14.875C114 11.35 111.675 8.5 108.75 8.5Z" fill="#594A42"/>
</svg>
