<svg width="241" height="133" viewBox="0 0 241 133" fill="none" xmlns="http://www.w3.org/2000/svg">
<path d="M120.5 18.5C64.2822 25.5257 40.5828 42.2409 15.9999 101C15.9999 101 9.25934 92.2353 4.49989 87C-0.500173 81.5 20.2984 44.8677 47.4999 28C69.8583 14.1355 111.646 -1.50003 116 5.50001C118.969 10.2739 120.5 18.5 120.5 18.5Z" fill="#FBB040" stroke="#594A42" stroke-width="6"/>
<path d="M22.9194 61.8548C22.3975 62.4938 21.5735 62.6923 21.0882 62.296L15.8823 58.0441C15.3971 57.6478 15.427 56.8007 15.9489 56.1617C16.4707 55.5228 17.2948 55.3243 17.7801 55.7206L22.9859 59.9724C23.4712 60.3688 23.4413 61.2159 22.9194 61.8548Z" fill="#594A42" stroke="#594A42" stroke-width="3"/>
<path d="M43.8229 39.9432C43.1812 40.4617 42.334 40.4872 41.9402 39.9998L37.716 34.7715C37.3222 34.2841 37.525 33.4612 38.1668 32.9427C38.8085 32.4242 39.6557 32.3988 40.0495 32.8861L44.2737 38.1144C44.6675 38.6018 44.4646 39.4248 43.8229 39.9432Z" fill="#594A42" stroke="#594A42" stroke-width="3"/>
<path d="M69.6316 24.9384C68.8616 25.2346 68.0476 24.9985 67.8226 24.4137L65.4091 18.1405C65.1841 17.5557 65.63 16.8348 66.4 16.5386C67.1699 16.2424 67.984 16.4785 68.209 17.0633L70.6225 23.3365C70.8475 23.9213 70.4016 24.6422 69.6316 24.9384Z" fill="#594A42" stroke="#594A42" stroke-width="3"/>
<path d="M98.7994 14.0793C98.003 14.2948 97.2176 13.9763 97.0538 13.3715L95.2977 6.88348C95.1339 6.27866 95.6516 5.60745 96.4479 5.3919C97.2442 5.17634 98.0297 5.49483 98.1934 6.09965L99.9496 12.5877C100.113 13.1925 99.5957 13.8637 98.7994 14.0793Z" fill="#594A42" stroke="#594A42" stroke-width="3"/>
<path d="M14.3357 75.2132C13.8808 75.9015 13.081 76.1821 12.5582 75.8366L6.95046 72.1309C6.42771 71.7855 6.37214 70.9397 6.82697 70.2514C7.28181 69.5631 8.08165 69.2826 8.60441 69.6281L14.2122 73.3337C14.7349 73.6792 14.7905 74.525 14.3357 75.2132Z" fill="#594A42" stroke="#594A42" stroke-width="3"/>
<path d="M32.8229 49.9432C32.1812 50.4617 31.334 50.4872 30.9402 49.9998L26.716 44.7715C26.3222 44.2841 26.525 43.4612 27.1668 42.9427C27.8085 42.4242 28.6557 42.3988 29.0495 42.8861L33.2737 48.1144C33.6675 48.6018 33.4646 49.4248 32.8229 49.9432Z" fill="#594A42" stroke="#594A42" stroke-width="3"/>
<path d="M56.643 32.6125C55.9197 33.0092 55.0813 32.8843 54.78 32.3349L51.5478 26.4415C51.2465 25.8921 51.5918 25.118 52.3152 24.7213C53.0385 24.3246 53.8769 24.4495 54.1782 24.9989L57.4104 30.8923C57.7117 31.4417 57.3664 32.2157 56.643 32.6125Z" fill="#594A42" stroke="#594A42" stroke-width="3"/>
<path d="M84.7994 19.0793C84.003 19.2948 83.2176 18.9763 83.0538 18.3715L81.2977 11.8835C81.1339 11.2787 81.6516 10.6075 82.4479 10.3919C83.2442 10.1763 84.0297 10.4948 84.1934 11.0996L85.9496 17.5877C86.1133 18.1925 85.5957 18.8637 84.7994 19.0793Z" fill="#594A42" stroke="#594A42" stroke-width="3"/>
</svg>
