<svg width="240" height="137" viewBox="0 0 240 137" fill="none" xmlns="http://www.w3.org/2000/svg">
<path d="M13.75 97.5C17.8921 97.5 21.25 93.6385 21.25 88.875C21.25 84.1115 17.8921 80.25 13.75 80.25C9.60787 80.25 6.25 84.1115 6.25 88.875C6.25 93.6385 9.60787 97.5 13.75 97.5Z" fill="#FBB040"/>
<path d="M13.75 99.75C8.35 99.75 4 94.875 4 88.875C4 82.875 8.35 78 13.75 78C19.15 78 23.5 82.875 23.5 88.875C23.5 94.875 19.15 99.75 13.75 99.75ZM13.75 82.5C10.825 82.5 8.5 85.35 8.5 88.875C8.5 92.4 10.825 95.25 13.75 95.25C16.675 95.25 19 92.4 19 88.875C19 85.35 16.675 82.5 13.75 82.5Z" fill="#594A42"/>
<path d="M25.75 71.5C29.8921 71.5 33.25 67.6385 33.25 62.875C33.25 58.1115 29.8921 54.25 25.75 54.25C21.6079 54.25 18.25 58.1115 18.25 62.875C18.25 67.6385 21.6079 71.5 25.75 71.5Z" fill="#FBB040"/>
<path d="M25.75 73.75C20.35 73.75 16 68.875 16 62.875C16 56.875 20.35 52 25.75 52C31.15 52 35.5 56.875 35.5 62.875C35.5 68.875 31.15 73.75 25.75 73.75ZM25.75 56.5C22.825 56.5 20.5 59.35 20.5 62.875C20.5 66.4 22.825 69.25 25.75 69.25C28.675 69.25 31 66.4 31 62.875C31 59.35 28.675 56.5 25.75 56.5Z" fill="#594A42"/>
<path d="M43.75 51.5C47.8921 51.5 51.25 47.6385 51.25 42.875C51.25 38.1115 47.8921 34.25 43.75 34.25C39.6079 34.25 36.25 38.1115 36.25 42.875C36.25 47.6385 39.6079 51.5 43.75 51.5Z" fill="#FBB040"/>
<path d="M43.75 53.75C38.35 53.75 34 48.875 34 42.875C34 36.875 38.35 32 43.75 32C49.15 32 53.5 36.875 53.5 42.875C53.5 48.875 49.15 53.75 43.75 53.75ZM43.75 36.5C40.825 36.5 38.5 39.35 38.5 42.875C38.5 46.4 40.825 49.25 43.75 49.25C46.675 49.25 49 46.4 49 42.875C49 39.35 46.675 36.5 43.75 36.5Z" fill="#594A42"/>
<path d="M64.75 37.5C68.8921 37.5 72.25 33.6385 72.25 28.875C72.25 24.1115 68.8921 20.25 64.75 20.25C60.6079 20.25 57.25 24.1115 57.25 28.875C57.25 33.6385 60.6079 37.5 64.75 37.5Z" fill="#FBB040"/>
<path d="M64.75 39.75C59.35 39.75 55 34.875 55 28.875C55 22.875 59.35 18 64.75 18C70.15 18 74.5 22.875 74.5 28.875C74.5 34.875 70.15 39.75 64.75 39.75ZM64.75 22.5C61.825 22.5 59.5 25.35 59.5 28.875C59.5 32.4 61.825 35.25 64.75 35.25C67.675 35.25 70 32.4 70 28.875C70 25.35 67.675 22.5 64.75 22.5Z" fill="#594A42"/>
<path d="M88.75 27.5C92.8921 27.5 96.25 23.6385 96.25 18.875C96.25 14.1115 92.8921 10.25 88.75 10.25C84.6079 10.25 81.25 14.1115 81.25 18.875C81.25 23.6385 84.6079 27.5 88.75 27.5Z" fill="#FBB040"/>
<path d="M88.75 29.75C83.35 29.75 79 24.875 79 18.875C79 12.875 83.35 8 88.75 8C94.15 8 98.5 12.875 98.5 18.875C98.5 24.875 94.15 29.75 88.75 29.75ZM88.75 12.5C85.825 12.5 83.5 15.35 83.5 18.875C83.5 22.4 85.825 25.25 88.75 25.25C91.675 25.25 94 22.4 94 18.875C94 15.35 91.675 12.5 88.75 12.5Z" fill="#594A42"/>
<path d="M113.75 21.5C117.892 21.5 121.25 17.6385 121.25 12.875C121.25 8.11154 117.892 4.25 113.75 4.25C109.608 4.25 106.25 8.11154 106.25 12.875C106.25 17.6385 109.608 21.5 113.75 21.5Z" fill="#FBB040"/>
<path d="M113.75 23.75C108.35 23.75 104 18.875 104 12.875C104 6.875 108.35 2 113.75 2C119.15 2 123.5 6.875 123.5 12.875C123.5 18.875 119.15 23.75 113.75 23.75ZM113.75 6.5C110.825 6.5 108.5 9.35 108.5 12.875C108.5 16.4 110.825 19.25 113.75 19.25C116.675 19.25 119 16.4 119 12.875C119 9.35 116.675 6.5 113.75 6.5Z" fill="#594A42"/>
</svg>
