<svg width="120" height="110" viewBox="0 0 120 110" fill="none" xmlns="http://www.w3.org/2000/svg">
<path d="M106.43 109C106.43 109 6.49953 110.5 1.50021 89.5C-3.49911 68.5 35.4309 -0.99998 106.43 1.49982C114.307 12.3732 117.854 31.4371 118.5 52C119.223 75.0064 115.517 95.7519 106.43 109Z" fill="#F7AD3F"/>
<path d="M106.43 1.49982C95.059 42.2119 93.7234 65.5987 106.43 109M106.43 1.49982C35.4309 -0.99998 -3.49911 68.5 1.50021 89.5C6.49953 110.5 106.43 109 106.43 109M106.43 1.49982C114.307 12.3732 117.854 31.4371 118.5 52C119.223 75.0064 115.517 95.7519 106.43 109" stroke="black"/>
</svg>
