<svg width="242" height="138" viewBox="0 0 242 138" fill="none" xmlns="http://www.w3.org/2000/svg">
<path d="M26.6644 82.1237L19.1277 104.91C5.49062 97.8982 2.49808 93.0896 4.53951 86.9185C6.58094 80.7474 12.5517 78.9802 26.6644 82.1237Z" fill="#FBB040" stroke="#594A42" stroke-width="6"/>
<path d="M38.1272 62.1951L26.81 83.3593C14.5706 74.1219 12.4432 68.8729 15.5085 63.1411C18.5738 57.4092 24.7587 56.6877 38.1272 62.1951Z" fill="#FBB040" stroke="#594A42" stroke-width="6"/>
<path d="M54.1374 44.9666L38.1782 62.8916C28.4426 51.0447 27.6037 45.4434 31.9262 40.5889C36.2487 35.7343 42.4305 36.4814 54.1374 44.9666Z" fill="#FBB040" stroke="#594A42" stroke-width="6"/>
<path d="M74.3589 32.3663L54.2156 45.4142C47.9724 31.4087 48.6498 25.7856 54.1054 22.252C59.5611 18.7184 65.3231 21.079 74.3589 32.3663Z" fill="#FBB040" stroke="#594A42" stroke-width="6"/>
<path d="M96.6972 24.4121L74.0361 32.316C71.289 17.2301 73.2794 11.9276 79.4169 9.7872C85.5543 7.64682 90.593 11.3053 96.6972 24.4121Z" fill="#FBB040" stroke="#594A42" stroke-width="6"/>
<path d="M121.175 21.8641L97.3155 24.4599C98.0375 9.14288 101.171 4.42507 107.633 3.72231C114.095 3.01956 118.18 7.71913 121.175 21.8641Z" fill="#FBB040" stroke="#594A42" stroke-width="6"/>
</svg>
