<svg width="240" height="135" viewBox="0 0 240 135" fill="none" xmlns="http://www.w3.org/2000/svg">
<path d="M122.745 18.5C66.5278 25.5257 42.8284 42.2409 18.2455 101C18.2455 101 11.5049 92.2353 6.74549 87C1.74543 81.5 22.544 44.8677 49.7455 28C72.1039 14.1355 113.891 -1.50003 118.246 5.50001C121.215 10.2739 122.745 18.5 122.745 18.5Z" fill="#FBB040" stroke="#594A42" stroke-width="6"/>
<path d="M19.9194 71.8548C19.3975 72.4938 18.5735 72.6923 18.0882 72.296L12.8823 68.0441C12.3971 67.6478 12.427 66.8007 12.9489 66.1617C13.4707 65.5228 14.2948 65.3243 14.7801 65.7206L19.9859 69.9724C20.4712 70.3688 20.4413 71.2159 19.9194 71.8548Z" fill="#594A42" stroke="#594A42" stroke-width="3"/>
<path d="M29.9194 56.8548C29.3975 57.4938 28.5735 57.6923 28.0882 57.296L22.8823 53.0441C22.3971 52.6478 22.427 51.8007 22.9489 51.1617C23.4707 50.5228 24.2948 50.3243 24.7801 50.7206L29.9859 54.9724C30.4712 55.3688 30.4413 56.2159 29.9194 56.8548Z" fill="#594A42" stroke="#594A42" stroke-width="3"/>
<path d="M43.8229 42.9432C43.1812 43.4617 42.334 43.4872 41.9402 42.9998L37.716 37.7715C37.3222 37.2841 37.525 36.4612 38.1668 35.9427C38.8085 35.4242 39.6557 35.3988 40.0495 35.8861L44.2737 41.1144C44.6675 41.6018 44.4646 42.4248 43.8229 42.9432Z" fill="#594A42" stroke="#594A42" stroke-width="3"/>
<path d="M77.228 23.0196C76.444 23.2765 75.643 22.9995 75.4478 22.4041L73.3548 16.0168C73.1596 15.4214 73.6414 14.724 74.4254 14.4671C75.2094 14.2102 76.0105 14.4872 76.2056 15.0826L78.2987 21.4699C78.4938 22.0654 78.012 22.7627 77.228 23.0196Z" fill="#594A42" stroke="#594A42" stroke-width="3"/>
<path d="M59.9739 31.4613C59.27 31.8915 58.4267 31.8062 58.0999 31.2716L54.5942 25.5367C54.2674 25.0021 54.5759 24.2126 55.2798 23.7824C55.9837 23.3521 56.827 23.4374 57.1538 23.972L60.6595 29.7069C60.9863 30.2415 60.6778 31.031 59.9739 31.4613Z" fill="#594A42" stroke="#594A42" stroke-width="3"/>
<path d="M95.7994 16.0793C95.003 16.2948 94.2176 15.9763 94.0538 15.3715L92.2977 8.88348C92.1339 8.27866 92.6516 7.60745 93.4479 7.3919C94.2442 7.17634 95.0297 7.49483 95.1934 8.09965L96.9496 14.5877C97.1133 15.1925 96.5957 15.8637 95.7994 16.0793Z" fill="#594A42" stroke="#594A42" stroke-width="3"/>
</svg>
