<svg width="241" height="137" viewBox="0 0 241 137" fill="none" xmlns="http://www.w3.org/2000/svg">
<path d="M23.9505 89.6462L21.1168 113.478C6.35407 109.332 2.46137 105.218 3.22908 98.7635C3.99678 92.309 9.4943 89.3848 23.9505 89.6462Z" fill="#FBB040" stroke="#594A42" stroke-width="6"/>
<path d="M32.9985 73.1618L22.1456 94.5677C9.7076 85.5995 7.46622 80.3981 10.4058 74.6008C13.3453 68.8035 19.513 67.9472 32.9985 73.1618Z" fill="#FBB040" stroke="#594A42" stroke-width="6"/>
<path d="M43.4709 57.5472L29.6703 77.1825C18.6416 66.5289 17.1665 61.0606 20.9044 55.7428C24.6423 50.4251 30.869 50.4591 43.4709 57.5472Z" fill="#FBB040" stroke="#594A42" stroke-width="6"/>
<path d="M57.5951 44.5464L40.1152 60.992C31.4639 48.3315 31.123 42.678 35.8573 38.2242C40.5916 33.7704 46.6833 35.0605 57.5951 44.5464Z" fill="#FBB040" stroke="#594A42" stroke-width="6"/>
<path d="M72.6702 32.9587L54.3655 48.4809C46.3786 35.3912 46.3297 29.7276 51.2874 25.5239C56.2451 21.3202 62.2622 22.9227 72.6702 32.9587Z" fill="#FBB040" stroke="#594A42" stroke-width="6"/>
<path d="M89.5219 28.0488L66.997 36.3332C63.9962 21.2957 65.897 15.9604 71.9976 13.717C78.0982 11.4735 83.1978 15.0467 89.5219 28.0488Z" fill="#FBB040" stroke="#594A42" stroke-width="6"/>
<path d="M107.824 23.746L84.3467 28.7264C83.5257 13.4144 86.1694 8.40557 92.528 7.05697C98.8866 5.70837 103.423 9.97361 107.824 23.746Z" fill="#FBB040" stroke="#594A42" stroke-width="6"/>
<path d="M127.021 22.8445L103.021 22.9836C105.308 7.82105 108.908 3.44891 115.408 3.41151C121.908 3.37411 125.49 8.46725 127.021 22.8445Z" fill="#FBB040" stroke="#594A42" stroke-width="6"/>
</svg>
