<svg width="253" height="137" viewBox="0 0 253 137" fill="none" xmlns="http://www.w3.org/2000/svg">
<path d="M152.5 26C100.036 17.0316 43.5212 26.7305 18 100.5C18 100.5 9.2594 90.2353 4.49995 85C-0.500114 79.5 30.2985 37.8677 57.5 21C79.8584 7.13544 141.646 0.499916 146 7.49996C148.969 12.2738 152.5 26 152.5 26Z" fill="#FBB040" stroke="#594A42" stroke-width="6"/>
<path d="M26.9194 64.8548C26.3975 65.4938 25.5735 65.6923 25.0882 65.296L19.8823 61.0441C19.3971 60.6478 19.427 59.8007 19.9489 59.1617C20.4707 58.5228 21.2948 58.3243 21.7801 58.7206L26.9859 62.9724C27.4712 63.3688 27.4413 64.2159 26.9194 64.8548Z" fill="#594A42" stroke="#594A42" stroke-width="3"/>
<path d="M46.8229 41.9432C46.1812 42.4617 45.334 42.4872 44.9402 41.9998L40.716 36.7715C40.3222 36.2841 40.525 35.4612 41.1668 34.9427C41.8085 34.4242 42.6557 34.3988 43.0495 34.8861L47.2737 40.1144C47.6675 40.6018 47.4646 41.4248 46.8229 41.9432Z" fill="#594A42" stroke="#594A42" stroke-width="3"/>
<path d="M76.228 24.0196C75.444 24.2765 74.643 23.9995 74.4478 23.4041L72.3548 17.0168C72.1596 16.4214 72.6414 15.724 73.4254 15.4671C74.2094 15.2102 75.0105 15.4872 75.2056 16.0826L77.2987 22.4699C77.4938 23.0654 77.012 23.7627 76.228 24.0196Z" fill="#594A42" stroke="#594A42" stroke-width="3"/>
<path d="M106.799 17.0793C106.003 17.2948 105.218 16.9763 105.054 16.3715L103.298 9.88348C103.134 9.27866 103.652 8.60745 104.448 8.3919C105.244 8.17634 106.03 8.49483 106.193 9.09965L107.95 15.5877C108.113 16.1925 107.596 16.8637 106.799 17.0793Z" fill="#594A42" stroke="#594A42" stroke-width="3"/>
</svg>
