<svg width="253" height="137" viewBox="0 0 253 137" fill="none" xmlns="http://www.w3.org/2000/svg">
<path d="M152.5 26C100.036 17.0316 43.5212 26.7305 18 100.5C18 100.5 9.2594 90.2353 4.49995 85C-0.500114 79.5 30.2985 37.8677 57.5 21C79.8584 7.13544 141.646 0.499916 146 7.49996C148.969 12.2738 152.5 26 152.5 26Z" fill="#FBB040" stroke="#594A42" stroke-width="6"/>
<path d="M20.9194 73.8548C20.3975 74.4938 19.5735 74.6923 19.0882 74.296L13.8823 70.0441C13.3971 69.6478 13.427 68.8007 13.9489 68.1617C14.4707 67.5228 15.2948 67.3243 15.7801 67.7206L20.9859 71.9724C21.4712 72.3688 21.4413 73.2159 20.9194 73.8548Z" fill="#594A42" stroke="#594A42" stroke-width="3"/>
<path d="M31.9194 57.8548C31.3975 58.4938 30.5735 58.6923 30.0882 58.296L24.8823 54.0441C24.3971 53.6478 24.427 52.8007 24.9489 52.1617C25.4707 51.5228 26.2948 51.3243 26.7801 51.7206L31.9859 55.9724C32.4712 56.3688 32.4413 57.2159 31.9194 57.8548Z" fill="#594A42" stroke="#594A42" stroke-width="3"/>
<path d="M44.8229 44.9432C44.1812 45.4617 43.334 45.4872 42.9402 44.9998L38.716 39.7715C38.3222 39.2841 38.525 38.4612 39.1668 37.9427C39.8085 37.4242 40.6557 37.3988 41.0495 37.8861L45.2737 43.1144C45.6675 43.6018 45.4646 44.4248 44.8229 44.9432Z" fill="#594A42" stroke="#594A42" stroke-width="3"/>
<path d="M58.8229 33.9432C58.1812 34.4617 57.334 34.4872 56.9402 33.9998L52.716 28.7715C52.3222 28.2841 52.525 27.4612 53.1668 26.9427C53.8085 26.4242 54.6557 26.3988 55.0495 26.8861L59.2737 32.1144C59.6675 32.6018 59.4646 33.4248 58.8229 33.9432Z" fill="#594A42" stroke="#594A42" stroke-width="3"/>
<path d="M74.228 25.0196C73.444 25.2765 72.643 24.9995 72.4478 24.4041L70.3548 18.0168C70.1596 17.4214 70.6414 16.724 71.4254 16.4671C72.2094 16.2102 73.0105 16.4872 73.2056 17.0826L75.2987 23.4699C75.4938 24.0654 75.012 24.7627 74.228 25.0196Z" fill="#594A42" stroke="#594A42" stroke-width="3"/>
<path d="M90.0757 20.0778C89.2524 20.1309 88.5458 19.6627 88.5055 19.0374L88.0733 12.3298C88.033 11.7045 88.6736 11.1495 89.4969 11.0965C90.3202 11.0434 91.0268 11.5116 91.0671 12.1369L91.4993 18.8445C91.5396 19.4698 90.899 20.0248 90.0757 20.0778Z" fill="#594A42" stroke="#594A42" stroke-width="3"/>
<path d="M126.5 15.0124C125.675 15.0054 125.004 14.487 125.01 13.8605L125.067 7.1392C125.072 6.51264 125.751 6.00571 126.576 6.01268C127.401 6.01966 128.072 6.53801 128.066 7.16456L128.01 13.8858C128.004 14.5124 127.325 15.0193 126.5 15.0124Z" fill="#594A42" stroke="#594A42" stroke-width="3"/>
<path d="M109.064 16.1235C108.252 16.269 107.497 15.8834 107.386 15.2667L106.201 8.6505C106.09 8.03374 106.664 7.41007 107.476 7.26457C108.289 7.11907 109.043 7.50464 109.154 8.1214L110.339 14.7376C110.45 15.3543 109.876 15.978 109.064 16.1235Z" fill="#594A42" stroke="#594A42" stroke-width="3"/>
</svg>
