<svg width="240" height="137" viewBox="0 0 240 137" fill="none" xmlns="http://www.w3.org/2000/svg">
<path d="M14.75 94.5C18.8921 94.5 22.25 90.6385 22.25 85.875C22.25 81.1115 18.8921 77.25 14.75 77.25C10.6079 77.25 7.25 81.1115 7.25 85.875C7.25 90.6385 10.6079 94.5 14.75 94.5Z" fill="#FBB040"/>
<path d="M14.75 96.75C9.35 96.75 5 91.875 5 85.875C5 79.875 9.35 75 14.75 75C20.15 75 24.5 79.875 24.5 85.875C24.5 91.875 20.15 96.75 14.75 96.75ZM14.75 79.5C11.825 79.5 9.5 82.35 9.5 85.875C9.5 89.4 11.825 92.25 14.75 92.25C17.675 92.25 20 89.4 20 85.875C20 82.35 17.675 79.5 14.75 79.5Z" fill="#594A42"/>
<path d="M30.75 65.5C34.8921 65.5 38.25 61.6385 38.25 56.875C38.25 52.1115 34.8921 48.25 30.75 48.25C26.6079 48.25 23.25 52.1115 23.25 56.875C23.25 61.6385 26.6079 65.5 30.75 65.5Z" fill="#FBB040"/>
<path d="M30.75 67.75C25.35 67.75 21 62.875 21 56.875C21 50.875 25.35 46 30.75 46C36.15 46 40.5 50.875 40.5 56.875C40.5 62.875 36.15 67.75 30.75 67.75ZM30.75 50.5C27.825 50.5 25.5 53.35 25.5 56.875C25.5 60.4 27.825 63.25 30.75 63.25C33.675 63.25 36 60.4 36 56.875C36 53.35 33.675 50.5 30.75 50.5Z" fill="#594A42"/>
<path d="M53.75 44.5C57.8921 44.5 61.25 40.6385 61.25 35.875C61.25 31.1115 57.8921 27.25 53.75 27.25C49.6079 27.25 46.25 31.1115 46.25 35.875C46.25 40.6385 49.6079 44.5 53.75 44.5Z" fill="#FBB040"/>
<path d="M53.75 46.75C48.35 46.75 44 41.875 44 35.875C44 29.875 48.35 25 53.75 25C59.15 25 63.5 29.875 63.5 35.875C63.5 41.875 59.15 46.75 53.75 46.75ZM53.75 29.5C50.825 29.5 48.5 32.35 48.5 35.875C48.5 39.4 50.825 42.25 53.75 42.25C56.675 42.25 59 39.4 59 35.875C59 32.35 56.675 29.5 53.75 29.5Z" fill="#594A42"/>
<path d="M80.75 29.5C84.8921 29.5 88.25 25.6385 88.25 20.875C88.25 16.1115 84.8921 12.25 80.75 12.25C76.6079 12.25 73.25 16.1115 73.25 20.875C73.25 25.6385 76.6079 29.5 80.75 29.5Z" fill="#FBB040"/>
<path d="M80.75 31.75C75.35 31.75 71 26.875 71 20.875C71 14.875 75.35 10 80.75 10C86.15 10 90.5 14.875 90.5 20.875C90.5 26.875 86.15 31.75 80.75 31.75ZM80.75 14.5C77.825 14.5 75.5 17.35 75.5 20.875C75.5 24.4 77.825 27.25 80.75 27.25C83.675 27.25 86 24.4 86 20.875C86 17.35 83.675 14.5 80.75 14.5Z" fill="#594A42"/>
<path d="M111.75 22.5C115.892 22.5 119.25 18.6385 119.25 13.875C119.25 9.11154 115.892 5.25 111.75 5.25C107.608 5.25 104.25 9.11154 104.25 13.875C104.25 18.6385 107.608 22.5 111.75 22.5Z" fill="#FBB040"/>
<path d="M111.75 24.75C106.35 24.75 102 19.875 102 13.875C102 7.875 106.35 3 111.75 3C117.15 3 121.5 7.875 121.5 13.875C121.5 19.875 117.15 24.75 111.75 24.75ZM111.75 7.5C108.825 7.5 106.5 10.35 106.5 13.875C106.5 17.4 108.825 20.25 111.75 20.25C114.675 20.25 117 17.4 117 13.875C117 10.35 114.675 7.5 111.75 7.5Z" fill="#594A42"/>
<path d="M143.75 23.5C147.892 23.5 151.25 19.6385 151.25 14.875C151.25 10.1115 147.892 6.25 143.75 6.25C139.608 6.25 136.25 10.1115 136.25 14.875C136.25 19.6385 139.608 23.5 143.75 23.5Z" fill="#FBB040"/>
<path d="M143.75 25.75C138.35 25.75 134 20.875 134 14.875C134 8.875 138.35 4 143.75 4C149.15 4 153.5 8.875 153.5 14.875C153.5 20.875 149.15 25.75 143.75 25.75ZM143.75 8.5C140.825 8.5 138.5 11.35 138.5 14.875C138.5 18.4 140.825 21.25 143.75 21.25C146.675 21.25 149 18.4 149 14.875C149 11.35 146.675 8.5 143.75 8.5Z" fill="#594A42"/>
</svg>
