<svg width="156" height="114" viewBox="0 0 156 114" fill="none" xmlns="http://www.w3.org/2000/svg">
<path d="M143 111.557C143 111.557 15.0288 120.324 2.50008 91.9998C-10.0286 63.6757 60.4821 -23.4339 143 7.49981C150.877 18.3732 155.5 58.4999 155.5 58.4999C155.5 58.4999 152.086 98.309 143 111.557Z" fill="#F7AD3F"/>
<path d="M143 7.49981C131.629 48.2119 130.293 68.1558 143 111.557M143 7.49981C60.4821 -23.4339 -10.0286 63.6757 2.50008 91.9998C15.0288 120.324 143 111.557 143 111.557M143 7.49981C150.877 18.3732 155.5 58.4999 155.5 58.4999C155.5 58.4999 152.086 98.309 143 111.557" stroke="black"/>
</svg>
