<svg width="240" height="137" viewBox="0 0 240 137" fill="none" xmlns="http://www.w3.org/2000/svg">
<path d="M26.8158 78.2627L18.9652 100.942C5.42617 93.7432 2.50032 88.8937 4.62678 82.7514C6.75324 76.6091 12.7479 74.9246 26.8158 78.2627Z" fill="#FBB040" stroke="#594A42" stroke-width="6"/>
<path d="M93.5525 27.2876L70.6979 34.6134C68.3348 19.4626 70.4593 14.2124 76.6491 12.2285C82.839 10.2447 87.7831 14.03 93.5525 27.2876Z" fill="#FBB040" stroke="#594A42" stroke-width="6"/>
<path d="M54.8025 46.46L37.5848 63.1798C28.7345 50.6577 28.3042 45.0103 32.9676 40.4822C37.6309 35.9541 43.7422 37.1478 54.8025 46.46Z" fill="#FBB040" stroke="#594A42" stroke-width="6"/>
<path d="M138.16 22.8521L114.163 23.2202C116.305 8.03648 119.863 3.63018 126.362 3.53074C132.861 3.43131 136.492 8.49004 138.16 22.8521Z" fill="#FBB040" stroke="#594A42" stroke-width="6"/>
</svg>
