<svg width="254" height="137" viewBox="0 0 254 137" fill="none" xmlns="http://www.w3.org/2000/svg">
<path d="M192 42.5C150.748 12.4647 53.5115 3.08626 17 97.5C17 97.5 5.73129 88.7143 3.49995 82C0.147077 71.9109 26.9119 37.7326 52.5 22.2918C80.0303 5.67905 100.922 2.783 133 5C157.327 6.68132 191.262 18.5415 194.5 24.5C197.184 29.4399 192 42.5 192 42.5Z" fill="#FBB040" stroke="#594A42" stroke-width="6"/>
<path d="M25.9194 61.8549C25.3975 62.4938 24.5735 62.6923 24.0882 62.296L18.8823 58.0442C18.3971 57.6478 18.427 56.8007 18.9489 56.1618C19.4707 55.5228 20.2948 55.3243 20.7801 55.7206L25.9859 59.9725C26.4712 60.3688 26.4413 61.2159 25.9194 61.8549Z" fill="#594A42" stroke="#594A42" stroke-width="3"/>
<path d="M52.8229 35.9432C52.1812 36.4617 51.334 36.4872 50.9402 35.9998L46.716 30.7715C46.3222 30.2841 46.525 29.4612 47.1668 28.9427C47.8085 28.4242 48.6557 28.3988 49.0495 28.8861L53.2737 34.1144C53.6675 34.6018 53.4646 35.4248 52.8229 35.9432Z" fill="#594A42" stroke="#594A42" stroke-width="3"/>
<path d="M90.228 16.0196C89.444 16.2765 88.643 15.9995 88.4478 15.4041L86.3548 9.0168C86.1596 8.42137 86.6414 7.72401 87.4254 7.46711C88.2094 7.2102 89.0105 7.48717 89.2056 8.0826L91.2987 14.4699C91.4938 15.0654 91.012 15.7627 90.228 16.0196Z" fill="#594A42" stroke="#594A42" stroke-width="3"/>
<path d="M143.485 16.1215C142.668 16.0055 142.072 15.4031 142.16 14.7828L143.105 8.12793C143.193 7.50757 143.933 7.09486 144.75 7.2108C145.567 7.32674 146.163 7.92917 146.075 8.54953L145.13 15.2044C145.042 15.8247 144.302 16.2374 143.485 16.1215Z" fill="#594A42" stroke="#594A42" stroke-width="3"/>
</svg>
