<svg width="240" height="137" viewBox="0 0 240 137" fill="none" xmlns="http://www.w3.org/2000/svg">
<path d="M33.3527 71.0918L22.3157 92.4034C9.95547 83.3283 7.75902 78.1078 10.7485 72.336C13.7379 66.5643 19.9127 65.7612 33.3527 71.0918Z" fill="#FBB040" stroke="#594A42" stroke-width="6"/>
<path d="M125.802 21.4054L101.918 23.7664C102.791 8.45724 105.971 3.77048 112.439 3.1313C118.908 2.49213 122.946 7.23165 125.802 21.4054Z" fill="#FBB040" stroke="#594A42" stroke-width="6"/>
<path d="M73.7784 34.2521L53.7758 47.5146C47.3832 33.5767 48.0005 27.9466 53.418 24.3549C58.8356 20.7632 64.6225 23.0621 73.7784 34.2521Z" fill="#FBB040" stroke="#594A42" stroke-width="6"/>
<path d="M181.221 34.8112L158.905 25.9791C166.688 12.7669 171.66 10.0553 177.704 12.4476C183.748 14.8399 185.169 20.9022 181.221 34.8112Z" fill="#FBB040" stroke="#594A42" stroke-width="6"/>
</svg>
