<svg width="254" height="137" viewBox="0 0 254 137" fill="none" xmlns="http://www.w3.org/2000/svg">
<path d="M192 42.5C150.748 12.4647 53.5115 3.08626 17 97.5C17 97.5 5.73129 88.7143 3.49995 82C0.147077 71.9109 26.9119 37.7326 52.5 22.2918C80.0303 5.67905 100.922 2.783 133 5C157.327 6.68132 191.262 18.5415 194.5 24.5C197.184 29.4399 192 42.5 192 42.5Z" fill="#FBB040" stroke="#594A42" stroke-width="6"/>
<path d="M21.9194 66.8549C21.3975 67.4938 20.5735 67.6923 20.0882 67.296L14.8823 63.0442C14.3971 62.6478 14.427 61.8007 14.9489 61.1618C15.4707 60.5228 16.2948 60.3243 16.7801 60.7206L21.9859 64.9725C22.4712 65.3688 22.4413 66.2159 21.9194 66.8549Z" fill="#594A42" stroke="#594A42" stroke-width="3"/>
<path d="M55.8229 32.9432C55.1812 33.4617 54.334 33.4872 53.9402 32.9998L49.716 27.7715C49.3222 27.2841 49.525 26.4612 50.1668 25.9427C50.8085 25.4242 51.6557 25.3988 52.0495 25.8861L56.2737 31.1144C56.6675 31.6018 56.4646 32.4248 55.8229 32.9432Z" fill="#594A42" stroke="#594A42" stroke-width="3"/>
<path d="M37.8229 47.9432C37.1812 48.4617 36.334 48.4872 35.9402 47.9998L31.716 42.7715C31.3222 42.2841 31.525 41.4612 32.1668 40.9427C32.8085 40.4242 33.6557 40.3988 34.0495 40.8861L38.2737 46.1144C38.6675 46.6018 38.4646 47.4248 37.8229 47.9432Z" fill="#594A42" stroke="#594A42" stroke-width="3"/>
<path d="M76.2581 22.759C75.5149 23.1171 74.6843 22.9483 74.4123 22.3838L71.4945 16.3286C71.2225 15.7641 71.6081 15.0093 72.3513 14.6511C73.0945 14.293 73.9251 14.4618 74.1971 15.0263L77.1149 21.0815C77.3869 21.646 77.0013 22.4008 76.2581 22.759Z" fill="#594A42" stroke="#594A42" stroke-width="3"/>
<path d="M99.9133 16.066C99.12 16.2925 98.3302 15.9848 98.1581 15.3823L96.3128 8.9191C96.1407 8.3166 96.6491 7.63832 97.4424 7.41182C98.2357 7.18532 99.0255 7.49296 99.1975 8.09546L101.043 14.5587C101.215 15.1612 100.707 15.8395 99.9133 16.066Z" fill="#594A42" stroke="#594A42" stroke-width="3"/>
<path d="M123.017 14.1239C122.204 14.265 121.451 13.8753 121.344 13.2579L120.195 6.6354C120.088 6.01805 120.665 5.39753 121.478 5.25647C122.291 5.11541 123.043 5.50511 123.151 6.12247L124.3 12.745C124.407 13.3624 123.83 13.9829 123.017 14.1239Z" fill="#594A42" stroke="#594A42" stroke-width="3"/>
<path d="M146.498 16.0623C145.674 16.0222 145.025 15.4773 145.056 14.8515L145.383 8.13789C145.413 7.51205 146.112 7.03284 146.936 7.07298C147.76 7.11312 148.409 7.65801 148.379 8.28385L148.052 14.9974C148.022 15.6233 147.322 16.1025 146.498 16.0623Z" fill="#594A42" stroke="#594A42" stroke-width="3"/>
<path d="M170.498 23.0623C169.674 23.0222 169.025 22.4773 169.056 21.8515L169.383 15.1379C169.413 14.5121 170.112 14.0328 170.936 14.073C171.76 14.1131 172.409 14.658 172.379 15.2838L172.052 21.9974C172.022 22.6233 171.322 23.1025 170.498 23.0623Z" fill="#594A42" stroke="#594A42" stroke-width="3"/>
</svg>
