<svg width="240" height="138" viewBox="0 0 240 138" fill="none" xmlns="http://www.w3.org/2000/svg">
<path d="M24.75 73.5C28.8921 73.5 32.25 69.6385 32.25 64.875C32.25 60.1116 28.8921 56.25 24.75 56.25C20.6079 56.25 17.25 60.1116 17.25 64.875C17.25 69.6385 20.6079 73.5 24.75 73.5Z" fill="#FBB040"/>
<path d="M24.75 75.75C19.35 75.75 15 70.875 15 64.875C15 58.875 19.35 54 24.75 54C30.15 54 34.5 58.875 34.5 64.875C34.5 70.875 30.15 75.75 24.75 75.75ZM24.75 58.5C21.825 58.5 19.5 61.35 19.5 64.875C19.5 68.4 21.825 71.25 24.75 71.25C27.675 71.25 30 68.4 30 64.875C30 61.35 27.675 58.5 24.75 58.5Z" fill="#594A42"/>
<path d="M12.75 101.5C16.8921 101.5 20.25 97.6385 20.25 92.875C20.25 88.1116 16.8921 84.25 12.75 84.25C8.60787 84.25 5.25 88.1116 5.25 92.875C5.25 97.6385 8.60787 101.5 12.75 101.5Z" fill="#FBB040"/>
<path d="M12.75 103.75C7.35 103.75 3 98.875 3 92.875C3 86.875 7.35 82 12.75 82C18.15 82 22.5 86.875 22.5 92.875C22.5 98.875 18.15 103.75 12.75 103.75ZM12.75 86.5C9.825 86.5 7.5 89.35 7.5 92.875C7.5 96.4 9.825 99.25 12.75 99.25C15.675 99.25 18 96.4 18 92.875C18 89.35 15.675 86.5 12.75 86.5Z" fill="#594A42"/>
<path d="M65.75 35.5C69.8921 35.5 73.25 31.6385 73.25 26.875C73.25 22.1116 69.8921 18.25 65.75 18.25C61.6079 18.25 58.25 22.1116 58.25 26.875C58.25 31.6385 61.6079 35.5 65.75 35.5Z" fill="#FBB040"/>
<path d="M65.75 37.75C60.35 37.75 56 32.875 56 26.875C56 20.875 60.35 16 65.75 16C71.15 16 75.5 20.875 75.5 26.875C75.5 32.875 71.15 37.75 65.75 37.75ZM65.75 20.5C62.825 20.5 60.5 23.35 60.5 26.875C60.5 30.4 62.825 33.25 65.75 33.25C68.675 33.25 71 30.4 71 26.875C71 23.35 68.675 20.5 65.75 20.5Z" fill="#594A42"/>
<path d="M43.75 51.5C47.8921 51.5 51.25 47.6385 51.25 42.875C51.25 38.1116 47.8921 34.25 43.75 34.25C39.6079 34.25 36.25 38.1116 36.25 42.875C36.25 47.6385 39.6079 51.5 43.75 51.5Z" fill="#FBB040"/>
<path d="M43.75 53.75C38.35 53.75 34 48.875 34 42.875C34 36.875 38.35 32 43.75 32C49.15 32 53.5 36.875 53.5 42.875C53.5 48.875 49.15 53.75 43.75 53.75ZM43.75 36.5C40.825 36.5 38.5 39.35 38.5 42.875C38.5 46.4 40.825 49.25 43.75 49.25C46.675 49.25 49 46.4 49 42.875C49 39.35 46.675 36.5 43.75 36.5Z" fill="#594A42"/>
<path d="M91.75 26.5C95.8921 26.5 99.25 22.6385 99.25 17.875C99.25 13.1116 95.8921 9.25003 91.75 9.25003C87.6079 9.25003 84.25 13.1116 84.25 17.875C84.25 22.6385 87.6079 26.5 91.75 26.5Z" fill="#FBB040"/>
<path d="M91.75 28.75C86.35 28.75 82 23.875 82 17.875C82 11.875 86.35 7.00003 91.75 7.00003C97.15 7.00003 101.5 11.875 101.5 17.875C101.5 23.875 97.15 28.75 91.75 28.75ZM91.75 11.5C88.825 11.5 86.5 14.35 86.5 17.875C86.5 21.4 88.825 24.25 91.75 24.25C94.675 24.25 97 21.4 97 17.875C97 14.35 94.675 11.5 91.75 11.5Z" fill="#594A42"/>
<path d="M119.75 22.5C123.892 22.5 127.25 18.6385 127.25 13.875C127.25 9.11157 123.892 5.25003 119.75 5.25003C115.608 5.25003 112.25 9.11157 112.25 13.875C112.25 18.6385 115.608 22.5 119.75 22.5Z" fill="#FBB040"/>
<path d="M119.75 24.75C114.35 24.75 110 19.875 110 13.875C110 7.87503 114.35 3.00003 119.75 3.00003C125.15 3.00003 129.5 7.87503 129.5 13.875C129.5 19.875 125.15 24.75 119.75 24.75ZM119.75 7.50003C116.825 7.50003 114.5 10.35 114.5 13.875C114.5 17.4 116.825 20.25 119.75 20.25C122.675 20.25 125 17.4 125 13.875C125 10.35 122.675 7.50003 119.75 7.50003Z" fill="#594A42"/>
<path d="M147.75 24.5C151.892 24.5 155.25 20.6385 155.25 15.875C155.25 11.1116 151.892 7.25003 147.75 7.25003C143.608 7.25003 140.25 11.1116 140.25 15.875C140.25 20.6385 143.608 24.5 147.75 24.5Z" fill="#FBB040"/>
<path d="M147.75 26.75C142.35 26.75 138 21.875 138 15.875C138 9.87503 142.35 5.00003 147.75 5.00003C153.15 5.00003 157.5 9.87503 157.5 15.875C157.5 21.875 153.15 26.75 147.75 26.75ZM147.75 9.50003C144.825 9.50003 142.5 12.35 142.5 15.875C142.5 19.4 144.825 22.25 147.75 22.25C150.675 22.25 153 19.4 153 15.875C153 12.35 150.675 9.50003 147.75 9.50003Z" fill="#594A42"/>
<path d="M175.75 32.5C179.892 32.5 183.25 28.6385 183.25 23.875C183.25 19.1116 179.892 15.25 175.75 15.25C171.608 15.25 168.25 19.1116 168.25 23.875C168.25 28.6385 171.608 32.5 175.75 32.5Z" fill="#FBB040"/>
<path d="M175.75 34.75C170.35 34.75 166 29.875 166 23.875C166 17.875 170.35 13 175.75 13C181.15 13 185.5 17.875 185.5 23.875C185.5 29.875 181.15 34.75 175.75 34.75ZM175.75 17.5C172.825 17.5 170.5 20.35 170.5 23.875C170.5 27.4 172.825 30.25 175.75 30.25C178.675 30.25 181 27.4 181 23.875C181 20.35 178.675 17.5 175.75 17.5Z" fill="#594A42"/>
</svg>
