<svg width="166" height="97" viewBox="0 0 166 97" fill="none" xmlns="http://www.w3.org/2000/svg">
<path d="M153.86 91.4648C158.745 93.2785 14.9235 105.75 2.12683 81.5505C-10.6698 57.3513 65.1932 -39.7944 153.86 20.7716C160.65 30.1457 165.721 43.2716 165.067 58.7046C164.495 72.2141 161.693 80.0437 153.86 91.4648Z" fill="#F7AD3F"/>
<path d="M153.86 20.7716C142.858 60.7427 141.478 59.8567 153.86 91.4648M153.86 20.7716C65.1932 -39.7944 -10.6698 57.3513 2.12683 81.5505C14.9235 105.75 158.745 93.2785 153.86 91.4648M153.86 20.7716C160.65 30.1457 165.721 43.2716 165.067 58.7046C164.495 72.2141 161.693 80.0437 153.86 91.4648" stroke="black" stroke-width="0.862114"/>
</svg>
