<svg width="240" height="137" viewBox="0 0 240 137" fill="none" xmlns="http://www.w3.org/2000/svg">
<path d="M36.6225 65.3538L25.1101 86.4124C12.9566 77.0623 10.8779 71.7938 13.996 66.0906C17.1142 60.3873 23.3055 59.723 36.6225 65.3538Z" fill="#FBB040" stroke="#594A42" stroke-width="6"/>
<path d="M59.8143 41.0493L42.5229 57.6928C33.728 45.1317 33.3227 39.4824 38.0059 34.975C42.6892 30.4676 48.7952 31.6882 59.8143 41.0493Z" fill="#FBB040" stroke="#594A42" stroke-width="6"/>
<path d="M90.8583 25.8124L68.9354 35.579C64.9395 20.7748 66.4806 15.3247 72.4182 12.6799C78.3557 10.035 83.682 13.2604 90.8583 25.8124Z" fill="#FBB040" stroke="#594A42" stroke-width="6"/>
<path d="M125.715 21.4149L101.82 23.6547C102.77 8.35016 105.974 3.67959 112.445 3.07325C118.917 2.4669 122.932 7.22684 125.715 21.4149Z" fill="#FBB040" stroke="#594A42" stroke-width="6"/>
<path d="M158.771 24.6188L135 21.3143C139.438 6.63642 143.628 2.82588 150.066 3.72114C156.504 4.61639 159.319 10.1707 158.771 24.6188Z" fill="#FBB040" stroke="#594A42" stroke-width="6"/>
<path d="M190.809 37.5328L168.934 27.6587C177.331 14.8281 182.425 12.3538 188.35 15.0283C194.274 17.7028 195.408 23.8254 190.809 37.5328Z" fill="#FBB040" stroke="#594A42" stroke-width="6"/>
</svg>
