<svg width="43" height="59" viewBox="0 0 43 59" fill="none" xmlns="http://www.w3.org/2000/svg">
<path d="M34.9999 15.2C32.5999 0.300001 8.5999 3.29998 8.5999 3.29998C14.0999 13.2 5.09989 21.2 3.09989 33.8C1.09989 46.4 21.1999 55 21.1999 55C21.1999 55 34.7999 49.1 38.6999 39.7C42.5999 30.3 34.9999 15.2 34.9999 15.2Z" fill="#FBB040"/>
<path d="M21.1999 58.0999C20.7999 58.0999 20.3999 58 19.9999 57.9C19.0999 57.5 -2.20008 48.1999 0.199925 33.4999C0.999925 28.4999 2.79991 24.2 4.39991 20.4C7.19991 13.7 8.69992 9.59996 6.09992 4.89996C5.59992 3.99996 5.59991 2.99991 5.99991 2.09991C6.39991 1.19991 7.2999 0.599939 8.2999 0.499939C8.3999 0.499939 10.4999 0.199951 13.5999 0.199951C27.3999 0.199951 36.1999 5.39996 37.8999 14.4C39.1999 17 45.4999 31.3999 41.4999 41.0999C37.0999 51.3999 22.9999 57.7 22.3999 57.9C21.9999 58 21.5999 58.0999 21.1999 58.0999ZM12.8999 6.09991C14.2999 11.8999 12.0999 17.3999 9.89991 22.5999C8.39991 26.2999 6.79992 29.9999 6.09992 34.2999C4.79992 42.7999 17.1999 49.7 21.1999 51.7C24.3999 50.1 33.1999 45.1999 35.8999 38.5999C38.6999 31.9999 34.2999 20.3999 32.2999 16.4999C32.1999 16.1999 32.0999 15.8999 31.9999 15.5999C30.5999 7.09991 19.0999 5.99991 12.8999 6.09991Z" fill="#594A42"/>
<path d="M19.0998 12.8C19.0998 12.8 17.0998 22.1 15.0998 27.3C13.0998 32.5 15.0998 38.6 15.0998 38.6" fill="#FBB040"/>
<path d="M15.0998 40.5999C14.2998 40.5999 13.4998 40.1 13.1998 39.2C13.0998 38.9 10.9998 32.3999 13.1998 26.5999C15.0998 21.5999 17.0998 12.5 17.0998 12.4C17.2998 11.3 18.3998 10.6 19.4998 10.9C20.5998 11.1 21.2998 12.2 20.9998 13.3C20.8998 13.7 18.9998 22.7999 16.8998 28.0999C15.1998 32.5999 16.8998 38 16.8998 38C17.1998 39 16.6998 40.2 15.5998 40.5C15.4998 40.6 15.2998 40.5999 15.0998 40.5999Z" fill="#594A42"/>
</svg>
