<svg width="109" height="103" viewBox="0 0 109 103" fill="none" xmlns="http://www.w3.org/2000/svg">
<path fill-rule="evenodd" clip-rule="evenodd" d="M95.9802 0.479547C95.8652 0.469756 95.7504 0.466677 95.6363 0.470094C37.7786 0.51144 7.93367 41.0143 1.94193 68.2223C-0.395024 78.8086 1.23068 86.0678 6.20941 88.3867C20.5545 94.9023 60.5118 102.116 95.224 102.199C95.2678 102.2 95.3116 102.2 95.3555 102.199C95.5126 102.199 95.6697 102.199 95.8266 102.199C95.9226 102.199 96.0145 102.181 96.099 102.149C97.3823 102.39 98.7229 101.772 99.3445 100.55C106.034 87.3898 108.973 70.107 108.766 52.6152C108.56 35.0959 105.195 17.0708 99.006 2.32042C98.4882 1.08624 97.2455 0.376924 95.9802 0.479547ZM95.9744 93.4331C100.697 82.0014 102.908 67.6043 102.732 52.6864C102.564 38.4387 100.22 23.9261 95.9741 11.3688C91.7284 23.9258 89.3847 38.4381 89.2165 52.6854C89.0405 67.6038 91.2518 82.0012 95.9744 93.4331ZM83.1821 52.6142C82.9982 68.1973 85.3104 83.6145 90.5472 96.0985C55.0273 95.4131 20.1734 88.0289 8.74958 82.8415C7.63191 82.3374 6.0062 78.4053 7.93672 69.533C13.3662 44.9461 39.8965 8.65307 91.2549 6.60963C86.1422 20.4907 83.3692 36.7596 83.1821 52.6142Z" fill="#594A42"/>
</svg>
