<svg width="241" height="137" viewBox="0 0 241 137" fill="none" xmlns="http://www.w3.org/2000/svg">
<path d="M25.6644 81.1237L18.1277 103.91C4.49062 96.8982 1.49808 92.0896 3.53951 85.9185C5.58094 79.7474 11.5517 77.9802 25.6644 81.1237Z" fill="#FBB040" stroke="#594A42" stroke-width="4"/>
<path d="M37.1272 61.1951L25.81 82.3593C13.5706 73.1219 11.4432 67.8729 14.5085 62.1411C17.5738 56.4092 23.7587 55.6877 37.1272 61.1951Z" fill="#FBB040" stroke="#594A42" stroke-width="4"/>
<path d="M53.1374 43.9666L37.1782 61.8916C27.4426 50.0447 26.6037 44.4434 30.9262 39.5889C35.2487 34.7343 41.4305 35.4814 53.1374 43.9666Z" fill="#FBB040" stroke="#594A42" stroke-width="4"/>
<path d="M73.3589 31.3663L53.2156 44.4142C46.9724 30.4087 47.6498 24.7856 53.1054 21.252C58.5611 17.7184 64.3231 20.079 73.3589 31.3663Z" fill="#FBB040" stroke="#594A42" stroke-width="4"/>
<path d="M95.6972 23.4121L73.0361 31.316C70.289 16.2301 72.2794 10.9276 78.4169 8.7872C84.5543 6.64682 89.593 10.3053 95.6972 23.4121Z" fill="#FBB040" stroke="#594A42" stroke-width="4"/>
<path d="M120.175 20.8641L96.3155 23.4599C97.0375 8.14288 100.171 3.42507 106.633 2.72231C113.095 2.01956 117.18 6.71913 120.175 20.8641Z" fill="#FBB040" stroke="#594A42" stroke-width="4"/>
</svg>
