<svg width="124" height="107" viewBox="0 0 124 107" fill="none" xmlns="http://www.w3.org/2000/svg">
<path d="M26.6644 81.1237L19.1277 103.91C5.49062 96.8982 2.49808 92.0896 4.53951 85.9185C6.58094 79.7474 12.5517 77.9802 26.6644 81.1237Z" fill="#FBB040" stroke="#594A42" stroke-width="4"/>
<path d="M38.1272 61.1951L26.81 82.3593C14.5706 73.1219 12.4432 67.8729 15.5085 62.1411C18.5738 56.4092 24.7587 55.6877 38.1272 61.1951Z" fill="#FBB040" stroke="#594A42" stroke-width="4"/>
<path d="M54.1374 43.9666L38.1782 61.8916C28.4426 50.0447 27.6037 44.4434 31.9262 39.5889C36.2487 34.7343 42.4305 35.4814 54.1374 43.9666Z" fill="#FBB040" stroke="#594A42" stroke-width="4"/>
<path d="M74.3589 31.3663L54.2156 44.4142C47.9724 30.4087 48.6498 24.7856 54.1054 21.252C59.5611 17.7184 65.3231 20.079 74.3589 31.3663Z" fill="#FBB040" stroke="#594A42" stroke-width="4"/>
<path d="M96.6972 23.4121L74.0361 31.316C71.289 16.2301 73.2794 10.9276 79.4169 8.7872C85.5543 6.64682 90.593 10.3053 96.6972 23.4121Z" fill="#FBB040" stroke="#594A42" stroke-width="4"/>
<path d="M121.175 20.8641L97.3155 23.4599C98.0375 8.14288 101.171 3.42507 107.633 2.72231C114.095 2.01956 118.18 6.71913 121.175 20.8641Z" fill="#FBB040" stroke="#594A42" stroke-width="4"/>
</svg>
