<svg width="123" height="113" viewBox="0 0 123 113" fill="none" xmlns="http://www.w3.org/2000/svg">
<path d="M109.001 110.501C114.667 112.604 24.4996 114 4.87682 91.69C-14.746 69.3801 45.9992 -5.49992 109 1.00101C116.877 11.8744 118.754 29.9948 122.5 58.5011C119.795 89.5719 118.087 97.2526 109.001 110.501Z" fill="#F7AD3F"/>
<path d="M109 1.00101C97.629 41.7131 96.2937 67.0995 109.001 110.501M109 1.00101C45.9992 -5.49992 -14.746 69.3801 4.87682 91.69C24.4996 114 114.667 112.604 109.001 110.501M109 1.00101C116.877 11.8744 118.754 29.9948 122.5 58.5011C119.795 89.5719 118.087 97.2526 109.001 110.501" stroke="black"/>
</svg>
