<svg width="124" height="107" viewBox="0 0 124 107" fill="none" xmlns="http://www.w3.org/2000/svg">
<path fill-rule="evenodd" clip-rule="evenodd" d="M96.6481 24.0824L120.499 21.4077C117.457 7.27269 113.357 2.58666 106.897 3.31078C100.438 4.0349 97.3194 8.76305 96.6481 24.0824ZM17.9652 102.711L25.8158 80.0312C11.7479 76.6931 5.75324 78.3776 3.62678 84.5199C1.50032 90.6622 4.42617 95.5117 17.9652 102.711ZM81.7731 29.3172L60.4953 40.4193C55.5927 25.8902 56.7943 20.3553 62.5571 17.3488C68.32 14.3422 73.8353 17.2325 81.7731 29.3172ZM33.4377 66.9503L48.8035 48.5141C36.826 40.4154 30.6231 39.8704 26.4613 44.8634C22.2996 49.8563 23.3208 55.4273 33.4377 66.9503Z" fill="#FBB040"/>
<path d="M120.499 21.4077L120.777 23.8921L123.524 23.5841L122.943 20.8818L120.499 21.4077ZM96.6481 24.0824L94.1505 23.9729L94.0225 26.8925L96.9267 26.5668L96.6481 24.0824ZM106.897 3.31078L106.619 0.826342L106.619 0.826342L106.897 3.31078ZM25.8158 80.0312L28.1782 80.849L29.0824 78.2369L26.393 77.5987L25.8158 80.0312ZM17.9652 102.711L16.7914 104.918L19.3717 106.29L20.3276 103.529L17.9652 102.711ZM3.62678 84.5199L1.26435 83.702L1.26435 83.702L3.62678 84.5199ZM60.4953 40.4193L58.1266 41.2186L59.0609 43.9876L61.6518 42.6357L60.4953 40.4193ZM81.7731 29.3172L82.9296 31.5337L85.3802 30.255L83.8627 27.9447L81.7731 29.3172ZM62.5571 17.3488L61.4007 15.1323L61.4007 15.1323L62.5571 17.3488ZM48.8035 48.5141L50.7239 50.1147L52.4937 47.9914L50.2038 46.4431L48.8035 48.5141ZM33.4377 66.9503L31.559 68.5997L33.4871 70.7957L35.3581 68.5509L33.4377 66.9503ZM26.4613 44.8634L24.541 43.2627L24.541 43.2627L26.4613 44.8634ZM120.22 18.9233L96.3695 21.5979L96.9267 26.5668L120.777 23.8921L120.22 18.9233ZM107.176 5.79522C108.457 5.65154 109.484 5.78886 110.358 6.15297C111.231 6.51647 112.114 7.17389 113.005 8.32094C114.857 10.7036 116.55 14.942 118.055 21.9336L122.943 20.8818C121.406 13.7384 119.528 8.56632 116.954 5.25319C115.632 3.55237 114.089 2.29062 112.281 1.53743C110.474 0.784852 108.567 0.607965 106.619 0.826342L107.176 5.79522ZM99.1457 24.1918C99.4791 16.5844 100.418 12.0507 101.816 9.38408C102.485 8.10887 103.229 7.32104 104.024 6.80588C104.83 6.28389 105.839 5.94509 107.176 5.79522L106.619 0.826342C104.726 1.03853 102.922 1.56229 101.306 2.60922C99.6789 3.66297 98.3902 5.15041 97.3878 7.06267C95.4439 10.771 94.4884 16.261 94.1505 23.9729L99.1457 24.1918ZM23.4533 79.2134L15.6027 101.893L20.3276 103.529L28.1782 80.849L23.4533 79.2134ZM5.98921 85.3378C6.41115 84.119 6.97711 83.2511 7.68195 82.6188C8.38562 81.9876 9.35918 81.4733 10.7781 81.1625C13.7255 80.5169 18.2802 80.8125 25.2386 82.4637L26.393 77.5987C19.2835 75.9118 13.8068 75.3806 9.70833 76.2783C7.60433 76.7391 5.80128 77.589 4.34327 78.8968C2.88643 80.2037 1.90564 81.8497 1.26435 83.702L5.98921 85.3378ZM19.1389 100.504C12.4156 96.9285 8.7275 94.1294 6.9221 91.72C6.05873 90.5678 5.66777 89.5572 5.54509 88.6175C5.42078 87.6654 5.54911 86.609 5.98921 85.3378L1.26435 83.702C0.64122 85.502 0.337853 87.3552 0.587168 89.2648C0.838111 91.1869 1.62609 92.9904 2.92075 94.7182C5.43141 98.0689 9.97577 101.294 16.7914 104.918L19.1389 100.504ZM61.6518 42.6357L82.9296 31.5337L80.6167 27.1008L59.3389 38.2028L61.6518 42.6357ZM61.4007 15.1323C59.712 16.0133 58.2192 17.1526 57.0896 18.7123C55.9526 20.2822 55.2875 22.1345 55.0428 24.2797C54.5682 28.4396 55.6585 33.9045 58.1266 41.2186L62.8641 39.62C60.4295 32.4049 59.6693 27.8378 60.0105 24.8464C60.1737 23.4159 60.5832 22.4127 61.1391 21.6452C61.7023 20.8675 62.5208 20.1875 63.7135 19.5652L61.4007 15.1323ZM83.8627 27.9447C79.8511 21.8375 76.2335 17.6916 72.637 15.5308C70.7908 14.4215 68.8963 13.8017 66.9383 13.7518C64.9818 13.702 63.1387 14.2256 61.4007 15.1323L63.7135 19.5652C64.857 18.9687 65.8643 18.7261 66.8109 18.7502C67.7559 18.7743 68.8169 19.0686 70.062 19.8167C72.6484 21.3707 75.7573 24.7123 79.6836 30.6898L83.8627 27.9447ZM46.8831 46.9135L31.5173 65.3497L35.3581 68.5509L50.7239 50.1147L46.8831 46.9135ZM28.3817 46.4641C29.2075 45.4733 30.0439 44.8617 30.9268 44.5197C31.8083 44.1782 32.9008 44.0415 34.338 44.2528C37.3232 44.6916 41.4788 46.5792 47.4032 50.5851L50.2038 46.4431C44.1508 42.3502 39.2162 39.9161 35.0651 39.3059C32.9341 38.9927 30.947 39.1498 29.1206 39.8573C27.2957 40.5643 25.7961 41.7569 24.541 43.2627L28.3817 46.4641ZM35.3164 65.3008C30.2924 59.5786 27.833 55.6559 26.9966 52.7636C26.5967 51.3805 26.5885 50.297 26.8061 49.3746C27.0267 48.4401 27.5204 47.4974 28.3817 46.4641L24.541 43.2627C23.3214 44.7258 22.3821 46.3519 21.9398 48.2262C21.4946 50.1128 21.5937 52.0784 22.1934 54.1525C23.3564 58.1747 26.4661 62.7989 31.559 68.5997L35.3164 65.3008Z" fill="#594A42"/>
</svg>
