<svg width="141" height="137" viewBox="0 0 141 137" fill="none" xmlns="http://www.w3.org/2000/svg">
<path d="M25.8158 80.0312L17.9652 102.711C4.42617 95.5118 1.50032 90.6623 3.62678 84.5199C5.75324 78.3776 11.7479 76.6931 25.8158 80.0312Z" fill="#FBB040" stroke="#594A42" stroke-width="6"/>
<path d="M120.499 21.4077L96.6481 24.0824C97.3194 8.76308 100.438 4.03493 106.897 3.31081C113.357 2.58669 117.457 7.27272 120.499 21.4077Z" fill="#FBB040" stroke="#594A42" stroke-width="6"/>
<path d="M81.7731 29.3173L60.4953 40.4193C55.5927 25.8902 56.7943 20.3554 62.5571 17.3488C68.32 14.3422 73.8353 17.2326 81.7731 29.3173Z" fill="#FBB040" stroke="#594A42" stroke-width="6"/>
<path d="M48.8035 48.5141L33.4377 66.9503C23.3208 55.4273 22.2996 49.8564 26.4614 44.8634C30.6231 39.8705 36.826 40.4154 48.8035 48.5141Z" fill="#FBB040" stroke="#594A42" stroke-width="6"/>
</svg>
