<svg width="129" height="116" viewBox="0 0 129 116" fill="none" xmlns="http://www.w3.org/2000/svg">
<path d="M22.9505 88.6462L20.1168 112.478C5.35407 108.332 1.46137 104.218 2.22908 97.7635C2.99678 91.309 8.4943 88.3848 22.9505 88.6462Z" fill="#FBB040" stroke="#594A42" stroke-width="4"/>
<path d="M31.9985 72.1618L21.1456 93.5677C8.7076 84.5995 6.46622 79.3981 9.40578 73.6008C12.3453 67.8035 18.513 66.9472 31.9985 72.1618Z" fill="#FBB040" stroke="#594A42" stroke-width="4"/>
<path d="M42.4709 56.5472L28.6703 76.1825C17.6416 65.5289 16.1665 60.0606 19.9044 54.7428C23.6423 49.4251 29.869 49.4591 42.4709 56.5472Z" fill="#FBB040" stroke="#594A42" stroke-width="4"/>
<path d="M56.5951 43.5464L39.1152 59.992C30.4639 47.3315 30.123 41.678 34.8573 37.2242C39.5916 32.7704 45.6833 34.0605 56.5951 43.5464Z" fill="#FBB040" stroke="#594A42" stroke-width="4"/>
<path d="M71.6702 31.9587L53.3655 47.4809C45.3786 34.3912 45.3297 28.7276 50.2874 24.5239C55.2451 20.3202 61.2622 21.9227 71.6702 31.9587Z" fill="#FBB040" stroke="#594A42" stroke-width="4"/>
<path d="M88.5219 27.0488L65.997 35.3332C62.9962 20.2957 64.897 14.9604 70.9976 12.717C77.0982 10.4735 82.1978 14.0467 88.5219 27.0488Z" fill="#FBB040" stroke="#594A42" stroke-width="4"/>
<path d="M106.824 22.746L83.3467 27.7264C82.5257 12.4144 85.1694 7.40557 91.528 6.05697C97.8866 4.70837 102.423 8.97361 106.824 22.746Z" fill="#FBB040" stroke="#594A42" stroke-width="4"/>
<path d="M126.021 21.8445L102.021 21.9836C104.308 6.82105 107.908 2.44891 114.408 2.41151C120.908 2.37411 124.49 7.46725 126.021 21.8445Z" fill="#FBB040" stroke="#594A42" stroke-width="4"/>
</svg>
