<svg width="240" height="138" viewBox="0 0 240 138" fill="none" xmlns="http://www.w3.org/2000/svg">
<path d="M15.75 90.5C19.8921 90.5 23.25 86.6385 23.25 81.875C23.25 77.1115 19.8921 73.25 15.75 73.25C11.6079 73.25 8.25 77.1115 8.25 81.875C8.25 86.6385 11.6079 90.5 15.75 90.5Z" fill="#FBB040"/>
<path d="M15.75 92.75C10.35 92.75 6 87.875 6 81.875C6 75.875 10.35 71 15.75 71C21.15 71 25.5 75.875 25.5 81.875C25.5 87.875 21.15 92.75 15.75 92.75ZM15.75 75.5C12.825 75.5 10.5 78.35 10.5 81.875C10.5 85.4 12.825 88.25 15.75 88.25C18.675 88.25 21 85.4 21 81.875C21 78.35 18.675 75.5 15.75 75.5Z" fill="#594A42"/>
<path d="M9.75 114.5C13.8921 114.5 17.25 110.638 17.25 105.875C17.25 101.112 13.8921 97.25 9.75 97.25C5.60787 97.25 2.25 101.112 2.25 105.875C2.25 110.638 5.60787 114.5 9.75 114.5Z" fill="#FBB040"/>
<path d="M9.75 116.75C4.35 116.75 0 111.875 0 105.875C0 99.875 4.35 95 9.75 95C15.15 95 19.5 99.875 19.5 105.875C19.5 111.875 15.15 116.75 9.75 116.75ZM9.75 99.5C6.825 99.5 4.5 102.35 4.5 105.875C4.5 109.4 6.825 112.25 9.75 112.25C12.675 112.25 15 109.4 15 105.875C15 102.35 12.675 99.5 9.75 99.5Z" fill="#594A42"/>
<path d="M43.75 52.5C47.8921 52.5 51.25 48.6385 51.25 43.875C51.25 39.1115 47.8921 35.25 43.75 35.25C39.6079 35.25 36.25 39.1115 36.25 43.875C36.25 48.6385 39.6079 52.5 43.75 52.5Z" fill="#FBB040"/>
<path d="M43.75 54.75C38.35 54.75 34 49.875 34 43.875C34 37.875 38.35 33 43.75 33C49.15 33 53.5 37.875 53.5 43.875C53.5 49.875 49.15 54.75 43.75 54.75ZM43.75 37.5C40.825 37.5 38.5 40.35 38.5 43.875C38.5 47.4 40.825 50.25 43.75 50.25C46.675 50.25 49 47.4 49 43.875C49 40.35 46.675 37.5 43.75 37.5Z" fill="#594A42"/>
<path d="M27.75 69.5C31.8921 69.5 35.25 65.6385 35.25 60.875C35.25 56.1115 31.8921 52.25 27.75 52.25C23.6079 52.25 20.25 56.1115 20.25 60.875C20.25 65.6385 23.6079 69.5 27.75 69.5Z" fill="#FBB040"/>
<path d="M27.75 71.75C22.35 71.75 18 66.875 18 60.875C18 54.875 22.35 50 27.75 50C33.15 50 37.5 54.875 37.5 60.875C37.5 66.875 33.15 71.75 27.75 71.75ZM27.75 54.5C24.825 54.5 22.5 57.35 22.5 60.875C22.5 64.4 24.825 67.25 27.75 67.25C30.675 67.25 33 64.4 33 60.875C33 57.35 30.675 54.5 27.75 54.5Z" fill="#594A42"/>
<path d="M61.75 39.5C65.8921 39.5 69.25 35.6385 69.25 30.875C69.25 26.1115 65.8921 22.25 61.75 22.25C57.6079 22.25 54.25 26.1115 54.25 30.875C54.25 35.6385 57.6079 39.5 61.75 39.5Z" fill="#FBB040"/>
<path d="M61.75 41.75C56.35 41.75 52 36.875 52 30.875C52 24.875 56.35 20 61.75 20C67.15 20 71.5 24.875 71.5 30.875C71.5 36.875 67.15 41.75 61.75 41.75ZM61.75 24.5C58.825 24.5 56.5 27.35 56.5 30.875C56.5 34.4 58.825 37.25 61.75 37.25C64.675 37.25 67 34.4 67 30.875C67 27.35 64.675 24.5 61.75 24.5Z" fill="#594A42"/>
<path d="M80.75 29.5C84.8921 29.5 88.25 25.6385 88.25 20.875C88.25 16.1115 84.8921 12.25 80.75 12.25C76.6079 12.25 73.25 16.1115 73.25 20.875C73.25 25.6385 76.6079 29.5 80.75 29.5Z" fill="#FBB040"/>
<path d="M80.75 31.75C75.35 31.75 71 26.875 71 20.875C71 14.875 75.35 10 80.75 10C86.15 10 90.5 14.875 90.5 20.875C90.5 26.875 86.15 31.75 80.75 31.75ZM80.75 14.5C77.825 14.5 75.5 17.35 75.5 20.875C75.5 24.4 77.825 27.25 80.75 27.25C83.675 27.25 86 24.4 86 20.875C86 17.35 83.675 14.5 80.75 14.5Z" fill="#594A42"/>
<path d="M101.75 24.5C105.892 24.5 109.25 20.6385 109.25 15.875C109.25 11.1115 105.892 7.25 101.75 7.25C97.6079 7.25 94.25 11.1115 94.25 15.875C94.25 20.6385 97.6079 24.5 101.75 24.5Z" fill="#FBB040"/>
<path d="M101.75 26.75C96.35 26.75 92 21.875 92 15.875C92 9.875 96.35 5 101.75 5C107.15 5 111.5 9.875 111.5 15.875C111.5 21.875 107.15 26.75 101.75 26.75ZM101.75 9.5C98.825 9.5 96.5 12.35 96.5 15.875C96.5 19.4 98.825 22.25 101.75 22.25C104.675 22.25 107 19.4 107 15.875C107 12.35 104.675 9.5 101.75 9.5Z" fill="#594A42"/>
<path d="M122.75 22.5C126.892 22.5 130.25 18.6385 130.25 13.875C130.25 9.11154 126.892 5.25 122.75 5.25C118.608 5.25 115.25 9.11154 115.25 13.875C115.25 18.6385 118.608 22.5 122.75 22.5Z" fill="#FBB040"/>
<path d="M122.75 24.75C117.35 24.75 113 19.875 113 13.875C113 7.875 117.35 3 122.75 3C128.15 3 132.5 7.875 132.5 13.875C132.5 19.875 128.15 24.75 122.75 24.75ZM122.75 7.5C119.825 7.5 117.5 10.35 117.5 13.875C117.5 17.4 119.825 20.25 122.75 20.25C125.675 20.25 128 17.4 128 13.875C128 10.35 125.675 7.5 122.75 7.5Z" fill="#594A42"/>
</svg>
