<svg width="240" height="137" viewBox="0 0 240 137" fill="none" xmlns="http://www.w3.org/2000/svg">
<path d="M27.8158 80.0312L19.9652 102.711C6.42617 95.5118 3.50032 90.6623 5.62678 84.5199C7.75324 78.3776 13.7479 76.6931 27.8158 80.0312Z" fill="#FBB040" stroke="#594A42" stroke-width="4"/>
<path d="M119.499 23.4077L95.6481 26.0824C96.3194 10.7631 99.4375 6.03493 105.897 5.31081C112.357 4.58669 116.457 9.27272 119.499 23.4077Z" fill="#FBB040" stroke="#594A42" stroke-width="4"/>
<path d="M81.7731 31.3173L60.4953 42.4193C55.5927 27.8902 56.7943 22.3554 62.5571 19.3488C68.32 16.3422 73.8353 19.2326 81.7731 31.3173Z" fill="#FBB040" stroke="#594A42" stroke-width="4"/>
<path d="M49.8035 50.5141L34.4377 68.9503C24.3208 57.4273 23.2996 51.8564 27.4614 46.8634C31.6231 41.8705 37.826 42.4154 49.8035 50.5141Z" fill="#FBB040" stroke="#594A42" stroke-width="4"/>
</svg>
