<svg width="142" height="105" viewBox="0 0 142 105" fill="none" xmlns="http://www.w3.org/2000/svg">
<path fill-rule="evenodd" clip-rule="evenodd" d="M115.163 22.2202L139.16 21.852C137.492 7.49003 133.861 2.4313 127.362 2.53073C120.863 2.63016 117.305 7.03646 115.163 22.2202ZM70.6979 32.6134L93.5525 25.2876C87.7831 12.03 82.839 8.2447 76.6491 10.2285C70.4593 12.2123 68.3348 17.4626 70.6979 32.6134ZM17.9652 100.942L25.8158 78.2627C11.7479 74.9246 5.75324 76.6091 3.62678 82.7514C1.50032 88.8937 4.42617 93.7432 17.9652 100.942ZM52.8025 43.4601L35.5848 60.1798C26.7345 47.6577 26.3042 42.0103 30.9676 37.4822C35.6309 32.9542 41.7422 34.1478 52.8025 43.4601Z" fill="#FBB040"/>
<path d="M139.16 21.852L139.198 24.3517L141.962 24.3094L141.643 21.5637L139.16 21.852ZM115.163 22.2202L112.687 21.871L112.279 24.7647L115.201 24.7199L115.163 22.2202ZM127.362 2.53073L127.324 0.0310232L127.324 0.0310232L127.362 2.53073ZM93.5525 25.2876L94.3156 27.6683L96.9478 26.8246L95.8449 24.29L93.5525 25.2876ZM70.6979 32.6134L68.2278 32.9987L68.6781 35.8861L71.461 34.9941L70.6979 32.6134ZM76.6491 10.2285L75.8861 7.8478L75.8861 7.8478L76.6491 10.2285ZM25.8158 78.2627L28.1782 79.0804L29.0824 76.4684L26.393 75.8302L25.8158 78.2627ZM17.9652 100.942L16.7914 103.15L19.3717 104.522L20.3276 101.76L17.9652 100.942ZM3.62678 82.7514L1.26435 81.9335L1.26435 81.9335L3.62678 82.7514ZM35.5848 60.1798L33.5432 61.6228L35.2299 64.0092L37.3265 61.9733L35.5848 60.1798ZM52.8025 43.4601L54.5442 45.2536L56.5272 43.3279L54.4127 41.5477L52.8025 43.4601ZM30.9676 37.4822L32.7091 39.2758L30.9676 37.4822ZM139.122 19.3523L115.124 19.7205L115.201 24.7199L139.198 24.3517L139.122 19.3523ZM127.4 5.03044C128.69 5.01071 129.699 5.24618 130.534 5.69267C131.368 6.13843 132.184 6.87776 132.96 8.10522C134.574 10.6548 135.852 15.0365 136.677 22.1404L141.643 21.5637C140.8 14.3055 139.429 8.97685 137.185 5.43147C136.034 3.61142 134.619 2.20709 132.892 1.28349C131.166 0.36062 129.284 0.00103723 127.324 0.0310232L127.4 5.03044ZM117.638 22.5693C118.702 15.0293 120.073 10.607 121.721 8.08715C122.509 6.88215 123.325 6.16953 124.166 5.73327C125.019 5.29122 126.055 5.05102 127.4 5.03044L127.324 0.0310232C125.419 0.06016 123.574 0.40803 121.864 1.29462C120.144 2.18699 118.718 3.54357 117.536 5.35054C115.245 8.85466 113.765 14.2274 112.687 21.871L117.638 22.5693ZM92.7894 22.9069L69.9348 30.2327L71.461 34.9941L94.3156 27.6683L92.7894 22.9069ZM77.4121 12.6092C78.6404 12.2156 79.6743 12.1477 80.603 12.3323C81.5301 12.5165 82.5257 12.9869 83.6256 13.9356C85.9104 15.9063 88.4065 19.7276 91.2602 26.2852L95.8449 24.29C92.9292 17.59 90.0685 12.8898 86.8914 10.1495C85.2604 8.74266 83.4987 7.81002 81.5777 7.42819C79.6581 7.04668 77.7528 7.24953 75.8861 7.8478L77.4121 12.6092ZM73.168 32.2281C71.9946 24.7044 72.0213 20.0745 72.8658 17.1846C73.2697 15.8026 73.8436 14.8835 74.5218 14.2216C75.2089 13.5509 76.1311 13.0198 77.4121 12.6092L75.8861 7.8478C74.0723 8.42913 72.4076 9.29825 71.0294 10.6434C69.6422 11.9973 68.6721 13.7097 68.0665 15.7821C66.8921 19.8009 67.0382 25.3716 68.2278 32.9987L73.168 32.2281ZM23.4533 77.4449L15.6027 100.125L20.3276 101.76L28.1782 79.0804L23.4533 77.4449ZM5.98921 83.5693C6.41115 82.3505 6.97711 81.4826 7.68195 80.8503C8.38562 80.2191 9.35918 79.7048 10.7781 79.394C13.7255 78.7484 18.2802 79.044 25.2386 80.6951L26.393 75.8302C19.2835 74.1432 13.8068 73.612 9.70833 74.5098C7.60433 74.9706 5.80128 75.8205 4.34327 77.1283C2.88643 78.4351 1.90564 80.0811 1.26435 81.9335L5.98921 83.5693ZM19.1389 98.735C12.4156 95.16 8.7275 92.3609 6.9221 89.9515C6.05873 88.7992 5.66777 87.7887 5.54509 86.849C5.42078 85.8969 5.54911 84.8405 5.98921 83.5693L1.26435 81.9335C0.64122 83.7334 0.337853 85.5866 0.587168 87.4963C0.838111 89.4184 1.62609 91.2218 2.92075 92.9497C5.43141 96.3003 9.97577 99.5256 16.7914 103.15L19.1389 98.735ZM37.3265 61.9733L54.5442 45.2536L51.0609 41.6666L33.8432 58.3863L37.3265 61.9733ZM29.226 35.6887C27.8595 37.0155 26.7545 38.5339 26.1177 40.3514C25.4768 42.1808 25.3688 44.1459 25.7473 46.2716C26.4813 50.3936 29.0879 55.319 33.5432 61.6228L37.6264 58.7369C33.2314 52.5186 31.1977 48.3592 30.6699 45.395C30.4174 43.9775 30.5231 42.8991 30.8365 42.0048C31.154 41.0985 31.744 40.213 32.7091 39.2758L29.226 35.6887ZM54.4127 41.5477C48.8231 36.8415 44.1716 33.9024 40.1076 32.8595C38.0213 32.3241 36.0287 32.2716 34.1381 32.7833C32.249 33.2946 30.6323 34.3231 29.226 35.6887L32.7091 39.2758C33.6344 38.3773 34.5305 37.857 35.4444 37.6096C36.3569 37.3626 37.4577 37.3415 38.8648 37.7026C41.7873 38.4526 45.7216 40.7664 51.1923 45.3725L54.4127 41.5477Z" fill="#594A42"/>
</svg>
