<svg width="240" height="136" viewBox="0 0 240 136" fill="none" xmlns="http://www.w3.org/2000/svg">
<path d="M23.2608 90.4781L20.8262 114.354C5.99611 110.455 2.03514 106.407 2.69477 99.9407C3.35441 93.4743 8.80224 90.4586 23.2608 90.4781Z" fill="#FBB040" stroke="#594A42" stroke-width="4"/>
<path d="M32.9923 70.4183L23.2467 92.3505C10.367 84.0292 7.86291 78.9491 10.5026 73.0092C13.1423 67.0693 19.2581 65.8992 32.9923 70.4183Z" fill="#FBB040" stroke="#594A42" stroke-width="4"/>
<path d="M47.156 53.0364L32.3419 71.9188C21.8888 60.6999 20.7033 55.1616 24.7157 50.0478C28.728 44.934 34.9443 45.2953 47.156 53.0364Z" fill="#FBB040" stroke="#594A42" stroke-width="4"/>
<path d="M65.3475 38.4746L46.9172 53.8475C39.037 40.6932 39.0342 35.0294 44.0259 30.8662C49.0176 26.7029 55.0214 28.3543 65.3475 38.4746Z" fill="#FBB040" stroke="#594A42" stroke-width="4"/>
<path d="M86.7902 27.6894L65.634 39.0214C60.5742 24.5463 61.7157 18.9987 67.4456 15.9299C73.1756 12.8611 78.7219 15.6915 86.7902 27.6894Z" fill="#FBB040" stroke="#594A42" stroke-width="4"/>
<path d="M111.138 22.1188L88.2224 29.2519C85.987 14.0817 88.1555 8.84958 94.3619 6.91795C100.568 4.98632 105.48 8.81313 111.138 22.1188Z" fill="#FBB040" stroke="#594A42" stroke-width="4"/>
<path d="M136.326 20.8941L112.457 23.3926C113.241 8.0787 116.394 3.37369 122.859 2.69726C129.324 2.02083 133.389 6.737 136.326 20.8941Z" fill="#FBB040" stroke="#594A42" stroke-width="4"/>
<path d="M160.309 23.2799L136.427 20.9042C140.289 6.06459 144.328 2.09365 150.796 2.73732C157.264 3.38099 160.293 8.82137 160.309 23.2799Z" fill="#FBB040" stroke="#594A42" stroke-width="4"/>
</svg>
