<svg width="159" height="118" viewBox="0 0 159 118" fill="none" xmlns="http://www.w3.org/2000/svg">
<path fill-rule="evenodd" clip-rule="evenodd" d="M144.236 4.50119C145.647 4.45213 147.007 5.2663 147.586 6.64577C161.849 40.6382 162.986 83.2842 147.582 113.586C147.267 114.207 146.791 114.693 146.231 115.021C145.661 115.733 144.815 116.219 143.843 116.311C132.623 117.375 121.134 118 110.118 118C69.6928 118 22.9035 109.58 6.16775 101.978C0.392744 99.2884 -1.49297 90.8682 1.21775 78.5887C8.17133 47.0129 42.8214 0 110 0C122.53 0 133.932 1.63546 144.236 4.50119ZM143.981 104.676C133.431 79.2255 133.916 45.6492 143.981 16.788C154.046 45.6492 154.532 79.2255 143.981 104.676ZM138.892 10.3387C126.609 42.2397 125.598 80.8613 138.537 109.727C129.14 110.519 119.532 110.983 110.118 110.983C66.8643 110.983 23.0213 101.861 9.11418 95.5461C7.81775 94.9614 5.93203 90.4004 8.17132 80.109C14.6535 50.7552 47.0642 7.01685 110.118 7.01685C120.539 7.01685 130.123 8.21161 138.892 10.3387Z" fill="#594A42"/>
</svg>
