<svg width="240" height="138" viewBox="0 0 240 138" fill="none" xmlns="http://www.w3.org/2000/svg">
<path d="M20.75 80.5C24.8921 80.5 28.25 76.6385 28.25 71.875C28.25 67.1115 24.8921 63.25 20.75 63.25C16.6079 63.25 13.25 67.1115 13.25 71.875C13.25 76.6385 16.6079 80.5 20.75 80.5Z" fill="#FBB040"/>
<path d="M20.75 82.75C15.35 82.75 11 77.875 11 71.875C11 65.875 15.35 61 20.75 61C26.15 61 30.5 65.875 30.5 71.875C30.5 77.875 26.15 82.75 20.75 82.75ZM20.75 65.5C17.825 65.5 15.5 68.35 15.5 71.875C15.5 75.4 17.825 78.25 20.75 78.25C23.675 78.25 26 75.4 26 71.875C26 68.35 23.675 65.5 20.75 65.5Z" fill="#594A42"/>
<path d="M10.75 103.5C14.8921 103.5 18.25 99.6385 18.25 94.875C18.25 90.1115 14.8921 86.25 10.75 86.25C6.60787 86.25 3.25 90.1115 3.25 94.875C3.25 99.6385 6.60787 103.5 10.75 103.5Z" fill="#FBB040"/>
<path d="M10.75 105.75C5.35 105.75 1 100.875 1 94.875C1 88.875 5.35 84 10.75 84C16.15 84 20.5 88.875 20.5 94.875C20.5 100.875 16.15 105.75 10.75 105.75ZM10.75 88.5C7.825 88.5 5.5 91.35 5.5 94.875C5.5 98.4 7.825 101.25 10.75 101.25C13.675 101.25 16 98.4 16 94.875C16 91.35 13.675 88.5 10.75 88.5Z" fill="#594A42"/>
<path d="M53.75 44.5C57.8921 44.5 61.25 40.6385 61.25 35.875C61.25 31.1115 57.8921 27.25 53.75 27.25C49.6079 27.25 46.25 31.1115 46.25 35.875C46.25 40.6385 49.6079 44.5 53.75 44.5Z" fill="#FBB040"/>
<path d="M53.75 46.75C48.35 46.75 44 41.875 44 35.875C44 29.875 48.35 25 53.75 25C59.15 25 63.5 29.875 63.5 35.875C63.5 41.875 59.15 46.75 53.75 46.75ZM53.75 29.5C50.825 29.5 48.5 32.35 48.5 35.875C48.5 39.4 50.825 42.25 53.75 42.25C56.675 42.25 59 39.4 59 35.875C59 32.35 56.675 29.5 53.75 29.5Z" fill="#594A42"/>
<path d="M35.75 60.5C39.8921 60.5 43.25 56.6385 43.25 51.875C43.25 47.1115 39.8921 43.25 35.75 43.25C31.6079 43.25 28.25 47.1115 28.25 51.875C28.25 56.6385 31.6079 60.5 35.75 60.5Z" fill="#FBB040"/>
<path d="M35.75 62.75C30.35 62.75 26 57.875 26 51.875C26 45.875 30.35 41 35.75 41C41.15 41 45.5 45.875 45.5 51.875C45.5 57.875 41.15 62.75 35.75 62.75ZM35.75 45.5C32.825 45.5 30.5 48.35 30.5 51.875C30.5 55.4 32.825 58.25 35.75 58.25C38.675 58.25 41 55.4 41 51.875C41 48.35 38.675 45.5 35.75 45.5Z" fill="#594A42"/>
<path d="M75.75 32.5C79.8921 32.5 83.25 28.6385 83.25 23.875C83.25 19.1115 79.8921 15.25 75.75 15.25C71.6079 15.25 68.25 19.1115 68.25 23.875C68.25 28.6385 71.6079 32.5 75.75 32.5Z" fill="#FBB040"/>
<path d="M75.75 34.75C70.35 34.75 66 29.875 66 23.875C66 17.875 70.35 13 75.75 13C81.15 13 85.5 17.875 85.5 23.875C85.5 29.875 81.15 34.75 75.75 34.75ZM75.75 17.5C72.825 17.5 70.5 20.35 70.5 23.875C70.5 27.4 72.825 30.25 75.75 30.25C78.675 30.25 81 27.4 81 23.875C81 20.35 78.675 17.5 75.75 17.5Z" fill="#594A42"/>
<path d="M99.75 25.5C103.892 25.5 107.25 21.6385 107.25 16.875C107.25 12.1115 103.892 8.25 99.75 8.25C95.6079 8.25 92.25 12.1115 92.25 16.875C92.25 21.6385 95.6079 25.5 99.75 25.5Z" fill="#FBB040"/>
<path d="M99.75 27.75C94.35 27.75 90 22.875 90 16.875C90 10.875 94.35 6 99.75 6C105.15 6 109.5 10.875 109.5 16.875C109.5 22.875 105.15 27.75 99.75 27.75ZM99.75 10.5C96.825 10.5 94.5 13.35 94.5 16.875C94.5 20.4 96.825 23.25 99.75 23.25C102.675 23.25 105 20.4 105 16.875C105 13.35 102.675 10.5 99.75 10.5Z" fill="#594A42"/>
<path d="M123.75 22.5C127.892 22.5 131.25 18.6385 131.25 13.875C131.25 9.11154 127.892 5.25 123.75 5.25C119.608 5.25 116.25 9.11154 116.25 13.875C116.25 18.6385 119.608 22.5 123.75 22.5Z" fill="#FBB040"/>
<path d="M123.75 24.75C118.35 24.75 114 19.875 114 13.875C114 7.875 118.35 3 123.75 3C129.15 3 133.5 7.875 133.5 13.875C133.5 19.875 129.15 24.75 123.75 24.75ZM123.75 7.5C120.825 7.5 118.5 10.35 118.5 13.875C118.5 17.4 120.825 20.25 123.75 20.25C126.675 20.25 129 17.4 129 13.875C129 10.35 126.675 7.5 123.75 7.5Z" fill="#594A42"/>
<path d="M147.75 24.5C151.892 24.5 155.25 20.6385 155.25 15.875C155.25 11.1115 151.892 7.25 147.75 7.25C143.608 7.25 140.25 11.1115 140.25 15.875C140.25 20.6385 143.608 24.5 147.75 24.5Z" fill="#FBB040"/>
<path d="M147.75 26.75C142.35 26.75 138 21.875 138 15.875C138 9.875 142.35 5 147.75 5C153.15 5 157.5 9.875 157.5 15.875C157.5 21.875 153.15 26.75 147.75 26.75ZM147.75 9.5C144.825 9.5 142.5 12.35 142.5 15.875C142.5 19.4 144.825 22.25 147.75 22.25C150.675 22.25 153 19.4 153 15.875C153 12.35 150.675 9.5 147.75 9.5Z" fill="#594A42"/>
</svg>
