<svg width="155" height="106" viewBox="0 0 155 106" fill="none" xmlns="http://www.w3.org/2000/svg">
<path d="M26.2387 79.6451L18.702 102.431C5.06493 95.4196 2.07239 90.611 4.11382 84.4399C6.15525 78.2688 12.126 76.5016 26.2387 79.6451Z" fill="#FBB040" stroke="#594A42" stroke-width="4"/>
<path d="M43.487 54.2498L29.6411 73.8532C18.6371 63.174 17.1746 57.7023 20.9248 52.3933C24.675 47.0842 30.9016 47.1325 43.487 54.2498Z" fill="#FBB040" stroke="#594A42" stroke-width="4"/>
<path d="M67.6213 35.5144L48.5266 50.0538C41.2383 36.5626 41.4869 30.9043 46.6585 26.9668C51.8302 23.0292 57.7547 24.9456 67.6213 35.5144Z" fill="#FBB040" stroke="#594A42" stroke-width="4"/>
<path d="M94.1292 24.1889L71.7429 32.8406C68.4966 17.8542 70.3099 12.4885 76.3729 10.1456C82.436 7.80268 87.5933 11.2919 94.1292 24.1889Z" fill="#FBB040" stroke="#594A42" stroke-width="4"/>
<path d="M122.998 20.3418L99.1924 23.3929C99.6216 8.06487 102.665 3.28805 109.112 2.46198C115.559 1.63591 119.733 6.25658 122.998 20.3418Z" fill="#FBB040" stroke="#594A42" stroke-width="4"/>
<path d="M152.65 23.1962L128.713 21.4482C132.185 6.51231 136.118 2.43672 142.6 2.9104C149.083 3.38407 152.254 8.74306 152.65 23.1962Z" fill="#FBB040" stroke="#594A42" stroke-width="4"/>
</svg>
