<svg width="155" height="114" viewBox="0 0 155 114" fill="none" xmlns="http://www.w3.org/2000/svg">
<path d="M140 110.5C145.666 112.604 17.484 121.266 2.64073 93.1968C-12.2025 65.1272 63.5 -26 142.5 8.00018C150.376 18.8736 150.253 34.494 154 63.0002C151.298 94.0277 149.092 97.2434 140.038 110.445L140 110.5Z" fill="#F7AD3F"/>
<path d="M142.5 8.00018C131.128 48.7122 127.293 67.0992 140 110.5M142.5 8.00018C63.5 -26 -12.2025 65.1272 2.64073 93.1968C17.484 121.266 145.666 112.604 140 110.5M142.5 8.00018C150.376 18.8736 150.253 34.494 154 63.0002C151.294 94.0711 149.086 97.2524 140 110.5" stroke="black"/>
</svg>
