<svg width="159" height="118" viewBox="0 0 159 118" fill="none" xmlns="http://www.w3.org/2000/svg">
<path fill-rule="evenodd" clip-rule="evenodd" d="M144.236 4.50119C145.647 4.45213 147.007 5.2663 147.586 6.64577C161.849 40.6382 162.986 83.2842 147.582 113.586C147.267 114.207 146.791 114.693 146.231 115.021C145.661 115.733 144.815 116.219 143.843 116.311C132.623 117.375 121.134 118 110.118 118C69.6928 118 22.9035 109.58 6.16775 101.978C0.392744 99.2884 -1.49297 90.8682 1.21775 78.5887C8.17133 47.0129 42.8214 0 110 0C122.53 0 133.932 1.63546 144.236 4.50119ZM143.981 104.676C133.431 79.2255 133.916 45.6492 143.981 16.788C154.046 45.6492 154.532 79.2255 143.981 104.676ZM138.892 10.3387C126.609 42.2397 125.598 80.8613 138.537 109.727C129.14 110.519 119.532 110.983 110.118 110.983C66.8643 110.983 23.0213 101.861 9.11418 95.5461C7.81775 94.9614 5.93203 90.4004 8.17132 80.109C14.6535 50.7552 47.0642 7.01685 110.118 7.01685C120.539 7.01685 130.123 8.21161 138.892 10.3387Z" fill="#594A42"/>
<g clip-path="url(#clip0_88_108)">
<path d="M37.2775 69.2948C36.6245 69.2948 35.9716 69.0772 35.4274 68.7507C33.9039 67.7712 33.5774 65.7035 34.5568 64.18C34.7745 63.8535 40.4335 55.4738 51.8603 47.203C53.2751 46.1147 55.3428 46.4412 56.431 47.8559C57.5193 49.2707 57.1928 51.3384 55.7781 52.4266C45.3307 60.0445 40.107 67.7712 40.107 67.7712C39.3452 68.8595 38.3658 69.2948 37.2775 69.2948Z" fill="#594A42"/>
<path d="M137.27 67.5281C136.509 67.5281 135.747 67.3104 135.203 66.7663C135.094 66.6574 120.62 54.7953 95.6986 54.7953C70.7772 54.7953 59.4592 66.4398 59.3504 66.5486C58.1533 67.8545 56.0855 67.8545 54.7796 66.6574C53.4737 65.4603 53.4737 63.3926 54.6708 62.0867C55.2149 61.5426 68.0565 48.3745 95.8074 48.3745C123.232 48.3745 138.903 61.3249 139.556 61.869C140.971 63.0661 141.079 65.1339 139.991 66.4398C139.12 67.0928 138.25 67.5281 137.27 67.5281Z" fill="#594A42"/>
<path d="M169.168 71.0689C168.079 71.0689 167.1 70.5247 166.447 69.6541C166.229 69.3276 144.355 38.6384 101.804 38.6384C89.6152 38.6384 77.9707 41.1415 67.3056 46.0387C65.6732 46.8005 63.7143 46.0387 62.9526 44.4063C62.1908 42.7739 62.9526 40.815 64.585 40.0532C76.1206 34.7207 88.6357 32 101.804 32C147.946 32 170.909 64.4304 171.888 65.8452C172.868 67.3688 172.541 69.3277 171.018 70.4159C170.474 70.8512 169.821 71.0689 169.168 71.0689Z" fill="#594A42"/>
</g>
<defs>
<clipPath id="clip0_88_108">
<rect width="101" height="39" fill="white" transform="translate(34 32)"/>
</clipPath>
</defs>
</svg>
