<svg width="240" height="137" viewBox="0 0 240 137" fill="none" xmlns="http://www.w3.org/2000/svg">
<path d="M26.2387 79.6451L18.702 102.431C5.06493 95.4196 2.07239 90.611 4.11382 84.4399C6.15525 78.2688 12.126 76.5016 26.2387 79.6451Z" fill="#FBB040" stroke="#594A42" stroke-width="4"/>
<path d="M43.487 55.2498L29.6411 74.8532C18.6371 64.174 17.1746 58.7023 20.9248 53.3933C24.675 48.0842 30.9016 48.1325 43.487 55.2498Z" fill="#FBB040" stroke="#594A42" stroke-width="4"/>
<path d="M67.6213 36.5144L48.5266 51.0538C41.2383 37.5626 41.4869 31.9043 46.6585 27.9668C51.8302 24.0292 57.7547 25.9456 67.6213 36.5144Z" fill="#FBB040" stroke="#594A42" stroke-width="4"/>
<path d="M93.1292 25.1889L70.7429 33.8406C67.4966 18.8542 69.3099 13.4885 75.3729 11.1456C81.436 8.80268 86.5933 12.2919 93.1292 25.1889Z" fill="#FBB040" stroke="#594A42" stroke-width="4"/>
<path d="M121.998 21.3418L98.1924 24.3929C98.6216 9.06487 101.665 4.28805 108.112 3.46198C114.559 2.63591 118.733 7.25658 121.998 21.3418Z" fill="#FBB040" stroke="#594A42" stroke-width="4"/>
<path d="M151.65 24.1962L127.713 22.4482C131.185 7.51231 135.118 3.43672 141.6 3.9104C148.083 4.38407 151.254 9.74306 151.65 24.1962Z" fill="#FBB040" stroke="#594A42" stroke-width="4"/>
</svg>
