<svg width="240" height="137" viewBox="0 0 240 137" fill="none" xmlns="http://www.w3.org/2000/svg">
<path d="M12.75 100.5C16.8921 100.5 20.25 96.6385 20.25 91.875C20.25 87.1115 16.8921 83.25 12.75 83.25C8.60787 83.25 5.25 87.1115 5.25 91.875C5.25 96.6385 8.60787 100.5 12.75 100.5Z" fill="#FBB040"/>
<path d="M12.75 102.75C7.35 102.75 3 97.875 3 91.875C3 85.875 7.35 81 12.75 81C18.15 81 22.5 85.875 22.5 91.875C22.5 97.875 18.15 102.75 12.75 102.75ZM12.75 85.5C9.825 85.5 7.5 88.35 7.5 91.875C7.5 95.4 9.825 98.25 12.75 98.25C15.675 98.25 18 95.4 18 91.875C18 88.35 15.675 85.5 12.75 85.5Z" fill="#594A42"/>
<path d="M40.75 56.5C44.8921 56.5 48.25 52.6385 48.25 47.875C48.25 43.1115 44.8921 39.25 40.75 39.25C36.6079 39.25 33.25 43.1115 33.25 47.875C33.25 52.6385 36.6079 56.5 40.75 56.5Z" fill="#FBB040"/>
<path d="M40.75 57.75C35.35 57.75 31 52.875 31 46.875C31 40.875 35.35 36 40.75 36C46.15 36 50.5 40.875 50.5 46.875C50.5 52.875 46.15 57.75 40.75 57.75ZM40.75 40.5C37.825 40.5 35.5 43.35 35.5 46.875C35.5 50.4 37.825 53.25 40.75 53.25C43.675 53.25 46 50.4 46 46.875C46 43.35 43.675 40.5 40.75 40.5Z" fill="#594A42"/>
<path d="M83.75 28.5C87.8921 28.5 91.25 24.6385 91.25 19.875C91.25 15.1115 87.8921 11.25 83.75 11.25C79.6079 11.25 76.25 15.1115 76.25 19.875C76.25 24.6385 79.6079 28.5 83.75 28.5Z" fill="#FBB040"/>
<path d="M83.75 30.75C78.35 30.75 74 25.875 74 19.875C74 13.875 78.35 9 83.75 9C89.15 9 93.5 13.875 93.5 19.875C93.5 25.875 89.15 30.75 83.75 30.75ZM83.75 13.5C80.825 13.5 78.5 16.35 78.5 19.875C78.5 23.4 80.825 26.25 83.75 26.25C86.675 26.25 89 23.4 89 19.875C89 16.35 86.675 13.5 83.75 13.5Z" fill="#594A42"/>
<path d="M135.75 22.5C139.892 22.5 143.25 18.6385 143.25 13.875C143.25 9.11154 139.892 5.25 135.75 5.25C131.608 5.25 128.25 9.11154 128.25 13.875C128.25 18.6385 131.608 22.5 135.75 22.5Z" fill="#FBB040"/>
<path d="M135.75 24.75C130.35 24.75 126 19.875 126 13.875C126 7.875 130.35 3 135.75 3C141.15 3 145.5 7.875 145.5 13.875C145.5 19.875 141.15 24.75 135.75 24.75ZM135.75 7.5C132.825 7.5 130.5 10.35 130.5 13.875C130.5 17.4 132.825 20.25 135.75 20.25C138.675 20.25 141 17.4 141 13.875C141 10.35 138.675 7.5 135.75 7.5Z" fill="#594A42"/>
</svg>
