<svg width="241" height="137" viewBox="0 0 241 137" fill="none" xmlns="http://www.w3.org/2000/svg">
<path d="M24.2608 91.4781L21.8262 115.354C6.99611 111.455 3.03514 107.407 3.69477 100.941C4.35441 94.4743 9.80224 91.4586 24.2608 91.4781Z" fill="#FBB040" stroke="#594A42" stroke-width="6"/>
<path d="M33.9923 71.4183L24.2467 93.3505C11.367 85.0292 8.86291 79.9491 11.5026 74.0092C14.1423 68.0693 20.2581 66.8992 33.9923 71.4183Z" fill="#FBB040" stroke="#594A42" stroke-width="6"/>
<path d="M48.156 54.0364L33.3419 72.9188C22.8888 61.6999 21.7033 56.1616 25.7157 51.0478C29.728 45.934 35.9443 46.2953 48.156 54.0364Z" fill="#FBB040" stroke="#594A42" stroke-width="6"/>
<path d="M66.3475 39.4746L47.9172 54.8475C40.037 41.6932 40.0342 36.0294 45.0259 31.8662C50.0176 27.7029 56.0214 29.3543 66.3475 39.4746Z" fill="#FBB040" stroke="#594A42" stroke-width="6"/>
<path d="M87.7902 28.6894L66.634 40.0214C61.5742 25.5463 62.7157 19.9987 68.4456 16.9299C74.1756 13.8611 79.7219 16.6915 87.7902 28.6894Z" fill="#FBB040" stroke="#594A42" stroke-width="6"/>
<path d="M112.138 23.1188L89.2224 30.2519C86.987 15.0817 89.1555 9.84958 95.3619 7.91795C101.568 5.98632 106.48 9.81313 112.138 23.1188Z" fill="#FBB040" stroke="#594A42" stroke-width="6"/>
<path d="M137.326 21.8941L113.457 24.3926C114.241 9.0787 117.394 4.37369 123.859 3.69726C130.324 3.02083 134.389 7.737 137.326 21.8941Z" fill="#FBB040" stroke="#594A42" stroke-width="6"/>
<path d="M161.309 24.2799L137.427 21.9042C141.289 7.06459 145.328 3.09365 151.796 3.73732C158.264 4.38099 161.293 9.82137 161.309 24.2799Z" fill="#FBB040" stroke="#594A42" stroke-width="6"/>
</svg>
