<svg width="253" height="137" viewBox="0 0 253 137" fill="none" xmlns="http://www.w3.org/2000/svg">
<path d="M152.5 26C100.036 17.0316 43.5212 26.7305 18 100.5C18 100.5 9.2594 90.2353 4.49995 85C-0.500114 79.5 30.2985 37.8677 57.5 21C79.8584 7.13544 141.646 0.499916 146 7.49996C148.969 12.2738 152.5 26 152.5 26Z" fill="#FBB040" stroke="#594A42" stroke-width="6"/>
<path d="M23.9194 67.8548C23.3975 68.4938 22.5735 68.6923 22.0882 68.296L16.8823 64.0441C16.3971 63.6478 16.427 62.8007 16.9489 62.1617C17.4707 61.5228 18.2948 61.3243 18.7801 61.7206L23.9859 65.9724C24.4712 66.3688 24.4413 67.2159 23.9194 67.8548Z" fill="#594A42" stroke="#594A42" stroke-width="3"/>
<path d="M39.8229 48.9432C39.1812 49.4617 38.334 49.4872 37.9402 48.9998L33.716 43.7715C33.3222 43.2841 33.525 42.4612 34.1668 41.9427C34.8085 41.4242 35.6557 41.3988 36.0495 41.8861L40.2737 47.1144C40.6675 47.6018 40.4646 48.4248 39.8229 48.9432Z" fill="#594A42" stroke="#594A42" stroke-width="3"/>
<path d="M56.6646 34.0563C56.0098 34.558 55.1622 34.5616 54.7811 34.0643L50.6929 28.7289C50.3118 28.2316 50.5358 27.4141 51.1907 26.9123C51.8455 26.4105 52.6931 26.4069 53.0742 26.9043L57.1624 32.2396C57.5435 32.737 57.3195 33.5545 56.6646 34.0563Z" fill="#594A42" stroke="#594A42" stroke-width="3"/>
<path d="M75.7994 24.0793C75.003 24.2948 74.2176 23.9763 74.0538 23.3715L72.2977 16.8835C72.1339 16.2787 72.6516 15.6075 73.4479 15.3919C74.2442 15.1763 75.0297 15.4948 75.1934 16.0996L76.9496 22.5877C77.1133 23.1925 76.5957 23.8637 75.7994 24.0793Z" fill="#594A42" stroke="#594A42" stroke-width="3"/>
<path d="M99.9045 18.124C99.0899 18.2545 98.3423 17.855 98.2432 17.2363L97.1802 10.5994C97.0811 9.98069 97.6665 9.36773 98.4811 9.23725C99.2957 9.10677 100.043 9.50622 100.142 10.1249L101.205 16.7618C101.305 17.3805 100.719 17.9935 99.9045 18.124Z" fill="#594A42" stroke="#594A42" stroke-width="3"/>
<path d="M122.499 16.0556C121.674 16.0205 121.022 15.4797 121.048 14.8537L121.333 8.13821C121.36 7.5122 122.056 7.02865 122.88 7.06366C123.705 7.09867 124.357 7.63952 124.331 8.26553L124.046 14.981C124.019 15.607 123.323 16.0906 122.499 16.0556Z" fill="#594A42" stroke="#594A42" stroke-width="3"/>
</svg>
