<svg width="193" height="113" viewBox="0 0 193 113" fill="none" xmlns="http://www.w3.org/2000/svg">
<path d="M179 106C184.667 108.104 17.8431 122.57 2.9999 94.5001C-11.8434 66.4305 76.1528 -46.253 179 24C186.877 34.8734 188.254 39.4938 192 68.0001C189.295 99.071 188.087 92.7523 179 106Z" fill="#F7AD3F"/>
<path d="M179 24C167.629 64.7121 166.293 62.5991 179 106M179 24C76.1528 -46.253 -11.8434 66.4305 2.9999 94.5001C17.8431 122.57 184.667 108.104 179 106M179 24C186.877 34.8734 188.254 39.4938 192 68.0001C189.295 99.071 188.087 92.7523 179 106" stroke="black"/>
</svg>
