<svg width="201" height="113" viewBox="0 0 201 113" fill="none" xmlns="http://www.w3.org/2000/svg">
<path d="M23.5526 85.745L19.5016 109.401C4.97066 104.503 1.29387 100.195 2.39129 93.7885C3.48872 87.3819 9.12884 84.7433 23.5526 85.745Z" fill="#FBB040" stroke="#594A42" stroke-width="4"/>
<path d="M37.4573 62.1155L26.2383 83.3318C13.9562 74.1512 11.8045 68.9121 14.8433 63.1661C17.882 57.4202 24.0635 56.67 37.4573 62.1155Z" fill="#FBB040" stroke="#594A42" stroke-width="4"/>
<path d="M56.805 42.002L39.5719 58.7058C30.7331 46.1755 30.3081 40.5277 34.9756 36.0039C39.6431 31.4802 45.7533 32.6795 56.805 42.002Z" fill="#FBB040" stroke="#594A42" stroke-width="4"/>
<path d="M81.6839 28.5441L61.3219 41.248C55.3175 27.1385 56.0904 21.5277 61.6052 18.0873C67.1201 14.6469 72.8412 17.105 81.6839 28.5441Z" fill="#FBB040" stroke="#594A42" stroke-width="4"/>
<path d="M109.077 21.8943L85.8226 27.8297C84.3767 12.5641 86.8135 7.45136 93.1117 5.84409C99.4098 4.23682 104.117 8.31315 109.077 21.8943Z" fill="#FBB040" stroke="#594A42" stroke-width="4"/>
<path d="M137.997 21.8731L114 21.4976C116.611 6.38755 120.304 2.09361 126.804 2.19558C133.303 2.29756 136.775 7.46634 137.997 21.8731Z" fill="#FBB040" stroke="#594A42" stroke-width="4"/>
<path d="M166.529 26.8484L143 22.1174C148.314 7.73361 152.726 4.1825 159.099 5.4641C165.471 6.74569 167.946 12.4595 166.529 26.8484Z" fill="#FBB040" stroke="#594A42" stroke-width="4"/>
<path d="M191.308 40.3566L170 29.3128C179.079 16.9555 184.3 14.7607 190.071 17.752C195.842 20.7433 196.643 26.9183 191.308 40.3566Z" fill="#FBB040" stroke="#594A42" stroke-width="4"/>
</svg>
