<svg width="249" height="137" viewBox="0 0 249 137" fill="none" xmlns="http://www.w3.org/2000/svg">
<path d="M27.6225 65.3538L16.1101 86.4124C3.95664 77.0623 1.87786 71.7938 4.99603 66.0906C8.1142 60.3873 14.3055 59.723 27.6225 65.3538Z" fill="#FBB040" stroke="#594A42" stroke-width="6"/>
<path d="M50.8143 41.0493L33.5229 57.6928C24.728 45.1317 24.3227 39.4824 29.0059 34.975C33.6892 30.4676 39.7952 31.6882 50.8143 41.0493Z" fill="#FBB040" stroke="#594A42" stroke-width="6"/>
<path d="M81.8583 25.8124L59.9354 35.579C55.9395 20.7748 57.4806 15.3247 63.4182 12.6799C69.3557 10.035 74.682 13.2604 81.8583 25.8124Z" fill="#FBB040" stroke="#594A42" stroke-width="6"/>
<path d="M116.715 21.4149L92.8198 23.6547C93.7701 8.35016 96.9738 3.67959 103.445 3.07325C109.917 2.4669 113.932 7.22684 116.715 21.4149Z" fill="#FBB040" stroke="#594A42" stroke-width="6"/>
<path d="M149.771 24.6188L126 21.3143C130.438 6.63642 134.628 2.82588 141.066 3.72114C147.504 4.61639 150.319 10.1707 149.771 24.6188Z" fill="#FBB040" stroke="#594A42" stroke-width="6"/>
<path d="M181.809 37.5328L159.934 27.6587C168.331 14.8281 173.425 12.3538 179.35 15.0283C185.274 17.7028 186.408 23.8254 181.809 37.5328Z" fill="#FBB040" stroke="#594A42" stroke-width="6"/>
</svg>
