<svg width="258" height="137" viewBox="0 0 258 137" fill="none" xmlns="http://www.w3.org/2000/svg">
<path d="M25.3581 87.3916L21.1045 111.012C6.61608 105.99 2.97634 101.651 4.12862 95.2535C5.28089 88.8564 10.9434 86.2663 25.3581 87.3916Z" fill="#FBB040" stroke="#594A42" stroke-width="6"/>
<path d="M38.1706 62.1955L25.6223 82.6537C13.9503 72.7091 12.1369 67.3435 15.5356 61.8029C18.9343 56.2623 25.151 55.9076 38.1706 62.1955Z" fill="#FBB040" stroke="#594A42" stroke-width="6"/>
<path d="M58.805 42.002L41.5719 58.7058C32.7331 46.1755 32.3081 40.5277 36.9756 36.0039C41.6431 31.4802 47.7533 32.6795 58.805 42.002Z" fill="#FBB040" stroke="#594A42" stroke-width="6"/>
<path d="M83.6839 28.5441L63.3219 41.248C57.3175 27.1385 58.0904 21.5277 63.6052 18.0873C69.1201 14.6469 74.8412 17.105 83.6839 28.5441Z" fill="#FBB040" stroke="#594A42" stroke-width="6"/>
<path d="M111.077 22.8943L87.8226 28.8298C86.3767 13.5641 88.8135 8.45139 95.1117 6.84412C101.41 5.23685 106.117 9.31318 111.077 22.8943Z" fill="#FBB040" stroke="#594A42" stroke-width="6"/>
<path d="M139.997 22.8732L116 22.4976C118.611 7.38758 122.304 3.09364 128.804 3.19561C135.303 3.29759 138.775 8.46637 139.997 22.8732Z" fill="#FBB040" stroke="#594A42" stroke-width="6"/>
<path d="M167.529 27.8485L144 23.1174C149.314 8.73364 153.726 5.18253 160.099 6.46413C166.471 7.74572 168.946 13.4595 167.529 27.8485Z" fill="#FBB040" stroke="#594A42" stroke-width="6"/>
<path d="M192.308 41.3567L171 30.3128C180.079 17.9555 185.3 15.7608 191.071 18.752C196.842 21.7433 197.643 27.9184 192.308 41.3567Z" fill="#FBB040" stroke="#594A42" stroke-width="6"/>
</svg>
