<svg width="168" height="103" viewBox="0 0 168 103" fill="none" xmlns="http://www.w3.org/2000/svg">
<path fill-rule="evenodd" clip-rule="evenodd" d="M155.264 30.5199C150.988 41.6469 148.741 50.6204 148.58 59.173C148.412 68.051 150.489 76.7077 155.264 87.0588C160.04 76.7077 162.117 68.051 161.949 59.173C161.787 50.6204 159.54 41.6469 155.264 30.5199ZM157.417 95.3078C156.981 95.84 156.365 96.2232 155.647 96.359C137.846 99.7236 115.624 102.199 95.2729 102.199C60.4218 102.199 20.0839 94.9397 5.6557 88.3863C0.67697 86.0674 -0.948735 78.8083 1.38822 68.222C7.38302 41.0001 37.2554 0.469727 95.1713 0.469727C121.183 0.469727 141.559 8.64558 156.648 20.1195C157.334 20.4189 157.91 20.9725 158.223 21.7173C164.284 36.1636 167.769 47.7534 167.983 59.0589C168.198 70.4369 165.099 81.2229 158.561 94.0832C158.293 94.6109 157.891 95.0259 157.417 95.3078ZM95.2729 96.1496C114.255 96.1496 134.154 93.9628 150.486 91.0814C144.962 79.5199 142.348 69.5406 142.546 59.0589C142.75 48.2859 145.923 37.2546 151.467 23.7396C137.493 13.6259 118.872 6.51903 95.2729 6.51903C40.9133 6.51903 12.9714 44.2264 7.38301 69.5326C5.45249 78.405 7.0782 82.337 8.19587 82.8411C20.1855 88.2855 57.9832 96.1496 95.2729 96.1496Z" fill="#594A42"/>
</svg>
