<svg width="240" height="137" viewBox="0 0 240 137" fill="none" xmlns="http://www.w3.org/2000/svg">
<path d="M13.75 98.5C17.8921 98.5 21.25 94.6385 21.25 89.875C21.25 85.1115 17.8921 81.25 13.75 81.25C9.60787 81.25 6.25 85.1115 6.25 89.875C6.25 94.6385 9.60787 98.5 13.75 98.5Z" fill="#FBB040"/>
<path d="M13.75 100.75C8.35 100.75 4 95.875 4 89.875C4 83.875 8.35 79 13.75 79C19.15 79 23.5 83.875 23.5 89.875C23.5 95.875 19.15 100.75 13.75 100.75ZM13.75 83.5C10.825 83.5 8.5 86.35 8.5 89.875C8.5 93.4 10.825 96.25 13.75 96.25C16.675 96.25 19 93.4 19 89.875C19 86.35 16.675 83.5 13.75 83.5Z" fill="#594A42"/>
<path d="M31.75 64.5C35.8921 64.5 39.25 60.6385 39.25 55.875C39.25 51.1115 35.8921 47.25 31.75 47.25C27.6079 47.25 24.25 51.1115 24.25 55.875C24.25 60.6385 27.6079 64.5 31.75 64.5Z" fill="#FBB040"/>
<path d="M31.75 66.75C26.35 66.75 22 61.875 22 55.875C22 49.875 26.35 45 31.75 45C37.15 45 41.5 49.875 41.5 55.875C41.5 61.875 37.15 66.75 31.75 66.75ZM31.75 49.5C28.825 49.5 26.5 52.35 26.5 55.875C26.5 59.4 28.825 62.25 31.75 62.25C34.675 62.25 37 59.4 37 55.875C37 52.35 34.675 49.5 31.75 49.5Z" fill="#594A42"/>
<path d="M59.75 39.5C63.8921 39.5 67.25 35.6385 67.25 30.875C67.25 26.1115 63.8921 22.25 59.75 22.25C55.6079 22.25 52.25 26.1115 52.25 30.875C52.25 35.6385 55.6079 39.5 59.75 39.5Z" fill="#FBB040"/>
<path d="M59.75 41.75C54.35 41.75 50 36.875 50 30.875C50 24.875 54.35 20 59.75 20C65.15 20 69.5 24.875 69.5 30.875C69.5 36.875 65.15 41.75 59.75 41.75ZM59.75 24.5C56.825 24.5 54.5 27.35 54.5 30.875C54.5 34.4 56.825 37.25 59.75 37.25C62.675 37.25 65 34.4 65 30.875C65 27.35 62.675 24.5 59.75 24.5Z" fill="#594A42"/>
<path d="M94.75 25.5C98.8921 25.5 102.25 21.6385 102.25 16.875C102.25 12.1115 98.8921 8.25 94.75 8.25C90.6079 8.25 87.25 12.1115 87.25 16.875C87.25 21.6385 90.6079 25.5 94.75 25.5Z" fill="#FBB040"/>
<path d="M94.75 27.75C89.35 27.75 85 22.875 85 16.875C85 10.875 89.35 6 94.75 6C100.15 6 104.5 10.875 104.5 16.875C104.5 22.875 100.15 27.75 94.75 27.75ZM94.75 10.5C91.825 10.5 89.5 13.35 89.5 16.875C89.5 20.4 91.825 23.25 94.75 23.25C97.675 23.25 100 20.4 100 16.875C100 13.35 97.675 10.5 94.75 10.5Z" fill="#594A42"/>
<path d="M133.75 22.5C137.892 22.5 141.25 18.6385 141.25 13.875C141.25 9.11154 137.892 5.25 133.75 5.25C129.608 5.25 126.25 9.11154 126.25 13.875C126.25 18.6385 129.608 22.5 133.75 22.5Z" fill="#FBB040"/>
<path d="M133.75 24.75C128.35 24.75 124 19.875 124 13.875C124 7.875 128.35 3 133.75 3C139.15 3 143.5 7.875 143.5 13.875C143.5 19.875 139.15 24.75 133.75 24.75ZM133.75 7.5C130.825 7.5 128.5 10.35 128.5 13.875C128.5 17.4 130.825 20.25 133.75 20.25C136.675 20.25 139 17.4 139 13.875C139 10.35 136.675 7.5 133.75 7.5Z" fill="#594A42"/>
<path d="M173.75 30.5C177.892 30.5 181.25 26.6385 181.25 21.875C181.25 17.1115 177.892 13.25 173.75 13.25C169.608 13.25 166.25 17.1115 166.25 21.875C166.25 26.6385 169.608 30.5 173.75 30.5Z" fill="#FBB040"/>
<path d="M173.75 32.75C168.35 32.75 164 27.875 164 21.875C164 15.875 168.35 11 173.75 11C179.15 11 183.5 15.875 183.5 21.875C183.5 27.875 179.15 32.75 173.75 32.75ZM173.75 15.5C170.825 15.5 168.5 18.35 168.5 21.875C168.5 25.4 170.825 28.25 173.75 28.25C176.675 28.25 179 25.4 179 21.875C179 18.35 176.675 15.5 173.75 15.5Z" fill="#594A42"/>
</svg>
