<svg width="254" height="137" viewBox="0 0 254 137" fill="none" xmlns="http://www.w3.org/2000/svg">
<path d="M192 42.5C150.748 12.4647 53.5115 3.08626 17 97.5C17 97.5 5.73129 88.7143 3.49995 82C0.147077 71.9109 26.9119 37.7326 52.5 22.2918C80.0303 5.67905 100.922 2.783 133 5C157.327 6.68132 191.262 18.5415 194.5 24.5C197.184 29.4399 192 42.5 192 42.5Z" fill="#FBB040" stroke="#594A42" stroke-width="6"/>
<path d="M23.9194 64.8549C23.3975 65.4938 22.5735 65.6923 22.0882 65.296L16.8823 61.0442C16.3971 60.6478 16.427 59.8007 16.9489 59.1618C17.4707 58.5228 18.2948 58.3243 18.7801 58.7206L23.9859 62.9725C24.4712 63.3688 24.4413 64.2159 23.9194 64.8549Z" fill="#594A42" stroke="#594A42" stroke-width="3"/>
<path d="M41.8229 44.9432C41.1812 45.4617 40.334 45.4872 39.9402 44.9998L35.716 39.7715C35.3222 39.2841 35.525 38.4612 36.1668 37.9427C36.8085 37.4242 37.6557 37.3988 38.0495 37.8861L42.2737 43.1144C42.6675 43.6018 42.4646 44.4248 41.8229 44.9432Z" fill="#594A42" stroke="#594A42" stroke-width="3"/>
<path d="M64.9483 27.4969C64.2051 27.855 63.3744 27.6862 63.1025 27.1217L60.1847 21.0665C59.9127 20.502 60.2983 19.7472 61.0415 19.3891C61.7847 19.0309 62.6153 19.1998 62.8873 19.7642L65.8051 25.8194C66.0771 26.3839 65.6915 27.1388 64.9483 27.4969Z" fill="#594A42" stroke="#594A42" stroke-width="3"/>
<path d="M94.5961 17.1771C93.7832 17.3182 93.0305 16.9285 92.9234 16.3111L91.7741 9.68856C91.667 9.07121 92.2444 8.45069 93.0573 8.30963C93.8701 8.16858 94.6228 8.55827 94.73 9.17563L95.8792 15.7982C95.9863 16.4155 95.4089 17.036 94.5961 17.1771Z" fill="#594A42" stroke="#594A42" stroke-width="3"/>
<path d="M125.498 14.0623C124.674 14.0222 124.025 13.4773 124.056 12.8515L124.383 6.13789C124.413 5.51205 125.112 5.03284 125.936 5.07298C126.76 5.11312 127.409 5.65801 127.379 6.28385L127.052 12.9974C127.022 13.6233 126.322 14.1025 125.498 14.0623Z" fill="#594A42" stroke="#594A42" stroke-width="3"/>
<path d="M159.485 20.1215C158.668 20.0055 158.072 19.4031 158.16 18.7828L159.105 12.1279C159.193 11.5076 159.933 11.0949 160.75 11.2108C161.567 11.3267 162.163 11.9292 162.075 12.5495L161.13 19.2044C161.042 19.8247 160.302 20.2374 159.485 20.1215Z" fill="#594A42" stroke="#594A42" stroke-width="3"/>
</svg>
