<svg width="240" height="137" viewBox="0 0 240 137" fill="none" xmlns="http://www.w3.org/2000/svg">
<path d="M30.6585 72.1098L20.6773 93.9358C7.8879 85.4762 5.43868 80.3694 8.14217 74.4583C10.8457 68.5472 16.9738 67.4431 30.6585 72.1098Z" fill="#FBB040" stroke="#594A42" stroke-width="4"/>
<path d="M53.1139 47.086L36.9928 64.8655C27.3651 52.9308 26.577 47.3221 30.9434 42.507C35.3097 37.6919 41.4845 38.495 53.1139 47.086Z" fill="#FBB040" stroke="#594A42" stroke-width="4"/>
<path d="M79.4346 30.9715L58.5466 42.7906C53.1528 28.4366 54.1655 22.8641 59.8228 19.6633C65.4801 16.4625 71.0905 19.1637 79.4346 30.9715Z" fill="#FBB040" stroke="#594A42" stroke-width="4"/>
<path d="M111.773 23.2451L88.0863 27.113C87.9882 11.7793 90.8651 6.9007 97.2802 5.8534C103.695 4.80609 108.026 9.28049 111.773 23.2451Z" fill="#FBB040" stroke="#594A42" stroke-width="4"/>
<path d="M146.819 23.8438L122.944 21.3985C126.849 6.57021 130.899 2.61105 137.365 3.27357C143.831 3.9361 146.845 9.38528 146.819 23.8438Z" fill="#FBB040" stroke="#594A42" stroke-width="4"/>
<path d="M183.162 34.7495L161.13 25.2324C169.317 12.2669 174.371 9.71012 180.337 12.2879C186.304 14.8657 187.538 20.9691 183.162 34.7495Z" fill="#FBB040" stroke="#594A42" stroke-width="4"/>
</svg>
