<svg width="176" height="91" viewBox="0 0 176 91" fill="none" xmlns="http://www.w3.org/2000/svg">
<path fill-rule="evenodd" clip-rule="evenodd" d="M91.9183 23.7664L115.802 21.4054C112.946 7.23165 108.908 2.49214 102.439 3.13131C95.9708 3.77048 92.7908 8.45725 91.9183 23.7664ZM14.9014 86.5276L26.8717 65.7259C13.681 59.8051 7.47672 60.3338 4.23453 65.9675C0.992339 71.6012 2.95537 76.9138 14.9014 86.5276ZM65.4438 34.3494L44.87 46.7074C39.1049 32.4984 39.9725 26.9015 45.5447 23.5548C51.1169 20.208 56.7956 22.7624 65.4438 34.3494ZM149 25.2701L171.486 33.6587C175.159 19.6743 173.617 13.6413 167.527 11.3691C161.437 9.09692 156.52 11.9064 149 25.2701Z" fill="#FBB040"/>
<path d="M115.802 21.4054L116.048 23.8933L118.799 23.6214L118.253 20.9117L115.802 21.4054ZM91.9183 23.7664L89.4223 23.6241L89.256 26.5418L92.1642 26.2543L91.9183 23.7664ZM102.439 3.13131L102.193 0.643424L102.193 0.643424L102.439 3.13131ZM26.8717 65.7259L29.0385 66.9728L30.4172 64.577L27.8954 63.4451L26.8717 65.7259ZM14.9014 86.5276L13.334 88.4752L15.6107 90.3074L17.0682 87.7745L14.9014 86.5276ZM4.23453 65.9675L2.06773 64.7205L2.06773 64.7205L4.23453 65.9675ZM44.87 46.7074L42.5534 47.6473L43.6521 50.3553L46.1573 48.8505L44.87 46.7074ZM65.4438 34.3494L66.7311 36.4925L69.1006 35.0692L67.4473 32.8541L65.4438 34.3494ZM45.5447 23.5548L44.2575 21.4116L44.2575 21.4116L45.5447 23.5548ZM171.486 33.6587L170.612 36.001L173.202 36.9671L173.904 34.2937L171.486 33.6587ZM149 25.2701L146.821 24.0441L145.388 26.591L148.126 27.6124L149 25.2701ZM167.527 11.3691L166.653 13.7114L166.653 13.7114L167.527 11.3691ZM115.556 18.9175L91.6723 21.2785L92.1642 26.2543L116.048 23.8933L115.556 18.9175ZM102.685 5.61919C103.969 5.49236 104.994 5.64317 105.863 6.01873C106.731 6.39368 107.605 7.06265 108.481 8.22131C110.301 10.628 111.939 14.8884 113.351 21.8991L118.253 20.9117C116.81 13.7487 115 8.55238 112.47 5.20571C111.171 3.48767 109.644 2.20575 107.846 1.42887C106.05 0.652609 104.144 0.450666 102.193 0.643424L102.685 5.61919ZM94.4142 23.9087C94.8475 16.3063 95.8463 11.7853 97.2791 9.13731C97.9643 7.871 98.7185 7.09302 99.5206 6.58835C100.333 6.077 101.346 5.75148 102.685 5.61919L102.193 0.643424C100.298 0.830724 98.4879 1.33074 96.8579 2.35633C95.2172 3.38861 93.909 4.85899 92.8816 6.75791C90.8891 10.4403 89.8616 15.9174 89.4223 23.6241L94.4142 23.9087ZM24.7049 64.479L12.7345 85.2807L17.0682 87.7745L29.0385 66.9728L24.7049 64.479ZM6.40132 67.2145C7.04465 66.0966 7.76354 65.3505 8.57458 64.8618C9.38427 64.374 10.4371 64.0517 11.8892 64.0129C14.9054 63.9323 19.3235 65.0781 25.848 68.0066L27.8954 63.4451C21.2293 60.4529 15.9499 58.9026 11.7557 59.0147C9.60258 59.0722 7.67201 59.5683 5.99432 60.579C4.31797 61.589 3.0455 63.0215 2.06773 64.7205L6.40132 67.2145ZM16.4688 84.58C10.5365 79.8059 7.43976 76.364 6.11899 73.6583C5.48739 72.3645 5.29317 71.2985 5.34915 70.3525C5.40587 69.3939 5.7303 68.3805 6.40132 67.2145L2.06773 64.7205C1.11766 66.3714 0.471645 68.1346 0.357883 70.0571C0.243377 71.9921 0.678636 73.9115 1.62577 75.8517C3.46247 79.6143 7.32025 83.6356 13.334 88.4752L16.4688 84.58ZM46.1573 48.8505L66.7311 36.4925L64.1565 32.2063L43.5827 44.5643L46.1573 48.8505ZM44.2575 21.4116C42.6246 22.3923 41.2028 23.6191 40.1687 25.2437C39.1279 26.879 38.5751 28.7678 38.4594 30.9238C38.2352 35.1047 39.6512 40.4944 42.5534 47.6473L47.1866 45.7675C44.3237 38.7114 43.291 34.1981 43.4523 31.1916C43.5294 29.7539 43.8779 28.7279 44.3868 27.9285C44.9024 27.1184 45.6786 26.3906 46.8319 25.6979L44.2575 21.4116ZM67.4473 32.8541C63.0767 26.9984 59.217 23.0769 55.4974 21.1356C53.588 20.1391 51.6597 19.634 49.7022 19.7016C47.7463 19.7691 45.9379 20.4023 44.2575 21.4116L46.8319 25.6979C47.9375 25.0338 48.9285 24.7313 49.8748 24.6986C50.8195 24.666 51.8963 24.8962 53.184 25.5683C55.8589 26.9643 59.1627 30.1135 63.4403 35.8448L67.4473 32.8541ZM172.36 31.3164L149.874 22.9278L148.126 27.6124L170.612 36.001L172.36 31.3164ZM166.653 13.7114C167.862 14.1622 168.716 14.7487 169.331 15.4684C169.946 16.1869 170.437 17.1724 170.713 18.5984C171.289 21.5603 170.885 26.1066 169.068 33.0237L173.904 34.2937C175.76 27.2264 176.422 21.7639 175.622 17.6452C175.211 15.5308 174.405 13.7081 173.132 12.2193C171.86 10.7318 170.238 9.71204 168.401 9.0268L166.653 13.7114ZM151.179 26.496C154.913 19.8598 157.799 16.2395 160.251 14.492C161.423 13.6563 162.443 13.2895 163.385 13.1892C164.34 13.0877 165.393 13.2411 166.653 13.7114L168.401 9.0268C166.617 8.36098 164.771 8.01356 162.856 8.21731C160.929 8.4224 159.107 9.1672 157.349 10.4203C153.939 12.8505 150.607 17.3167 146.821 24.0441L151.179 26.496Z" fill="#594A42"/>
</svg>
