<svg width="254" height="137" viewBox="0 0 254 137" fill="none" xmlns="http://www.w3.org/2000/svg">
<path d="M192 42.5C150.748 12.4647 53.5115 3.08626 17 97.5C17 97.5 5.73129 88.7143 3.49995 82C0.147077 71.9109 26.9119 37.7326 52.5 22.2918C80.0303 5.67905 100.922 2.783 133 5C157.327 6.68132 191.262 18.5415 194.5 24.5C197.184 29.4399 192 42.5 192 42.5Z" fill="#FBB040" stroke="#594A42" stroke-width="6"/>
<path d="M21.9194 66.8549C21.3975 67.4938 20.5735 67.6923 20.0882 67.296L14.8823 63.0442C14.3971 62.6478 14.427 61.8007 14.9489 61.1618C15.4707 60.5228 16.2948 60.3243 16.7801 60.7206L21.9859 64.9725C22.4712 65.3688 22.4413 66.2159 21.9194 66.8549Z" fill="#594A42" stroke="#594A42" stroke-width="3"/>
<path d="M49.8229 36.9432C49.1812 37.4617 48.334 37.4872 47.9402 36.9998L43.716 31.7715C43.3222 31.2841 43.525 30.4612 44.1668 29.9427C44.8085 29.4242 45.6557 29.3988 46.0495 29.8861L50.2737 35.1144C50.6675 35.6018 50.4646 36.4248 49.8229 36.9432Z" fill="#594A42" stroke="#594A42" stroke-width="3"/>
<path d="M33.8229 51.9432C33.1812 52.4617 32.334 52.4872 31.9402 51.9998L27.716 46.7715C27.3222 46.2841 27.525 45.4612 28.1668 44.9427C28.8085 44.4242 29.6557 44.3988 30.0495 44.8861L34.2737 50.1144C34.6675 50.6018 34.4646 51.4248 33.8229 51.9432Z" fill="#594A42" stroke="#594A42" stroke-width="3"/>
<path d="M67.2581 25.759C66.5149 26.1171 65.6843 25.9483 65.4123 25.3838L62.4945 19.3286C62.2225 18.7641 62.6081 18.0093 63.3513 17.6511C64.0945 17.293 64.9251 17.4618 65.1971 18.0263L68.1149 24.0815C68.3869 24.646 68.0013 25.4008 67.2581 25.759Z" fill="#594A42" stroke="#594A42" stroke-width="3"/>
<path d="M86.9133 18.066C86.12 18.2925 85.3302 17.9848 85.1581 17.3823L83.3128 10.9191C83.1407 10.3166 83.6491 9.63832 84.4424 9.41182C85.2357 9.18532 86.0255 9.49296 86.1975 10.0955L88.0429 16.5587C88.2149 17.1612 87.7066 17.8395 86.9133 18.066Z" fill="#594A42" stroke="#594A42" stroke-width="3"/>
<path d="M107.017 14.1239C106.204 14.265 105.451 13.8753 105.344 13.2579L104.195 6.6354C104.088 6.01805 104.665 5.39753 105.478 5.25647C106.291 5.11541 107.043 5.50511 107.151 6.12247L108.3 12.745C108.407 13.3624 107.83 13.9829 107.017 14.1239Z" fill="#594A42" stroke="#594A42" stroke-width="3"/>
<path d="M127.498 14.0623C126.674 14.0222 126.025 13.4773 126.056 12.8515L126.383 6.13789C126.413 5.51205 127.112 5.03284 127.936 5.07298C128.76 5.11312 129.409 5.65801 129.379 6.28385L129.052 12.9974C129.022 13.6233 128.322 14.1025 127.498 14.0623Z" fill="#594A42" stroke="#594A42" stroke-width="3"/>
<path d="M148.498 16.0623C147.674 16.0222 147.025 15.4773 147.056 14.8515L147.383 8.13789C147.413 7.51205 148.112 7.03284 148.936 7.07298C149.76 7.11312 150.409 7.65801 150.379 8.28385L150.052 14.9974C150.022 15.6233 149.322 16.1025 148.498 16.0623Z" fill="#594A42" stroke="#594A42" stroke-width="3"/>
<path d="M169.485 22.1215C168.668 22.0055 168.072 21.4031 168.16 20.7828L169.105 14.1279C169.193 13.5076 169.933 13.0949 170.75 13.2108C171.567 13.3267 172.163 13.9292 172.075 14.5495L171.13 21.2044C171.042 21.8247 170.302 22.2374 169.485 22.1215Z" fill="#594A42" stroke="#594A42" stroke-width="3"/>
</svg>
