<svg width="240" height="137" viewBox="0 0 240 137" fill="none" xmlns="http://www.w3.org/2000/svg">
<path d="M13.75 96.5C17.8921 96.5 21.25 92.6385 21.25 87.875C21.25 83.1115 17.8921 79.25 13.75 79.25C9.60787 79.25 6.25 83.1115 6.25 87.875C6.25 92.6385 9.60787 96.5 13.75 96.5Z" fill="#FBB040"/>
<path d="M13.75 98.75C8.35 98.75 4 93.875 4 87.875C4 81.875 8.35 77 13.75 77C19.15 77 23.5 81.875 23.5 87.875C23.5 93.875 19.15 98.75 13.75 98.75ZM13.75 81.5C10.825 81.5 8.5 84.35 8.5 87.875C8.5 91.4 10.825 94.25 13.75 94.25C16.675 94.25 19 91.4 19 87.875C19 84.35 16.675 81.5 13.75 81.5Z" fill="#594A42"/>
<path d="M47.75 47.5C51.8921 47.5 55.25 43.6385 55.25 38.875C55.25 34.1115 51.8921 30.25 47.75 30.25C43.6079 30.25 40.25 34.1115 40.25 38.875C40.25 43.6385 43.6079 47.5 47.75 47.5Z" fill="#FBB040"/>
<path d="M47.75 48.75C42.35 48.75 38 43.875 38 37.875C38 31.875 42.35 27 47.75 27C53.15 27 57.5 31.875 57.5 37.875C57.5 43.875 53.15 48.75 47.75 48.75ZM47.75 31.5C44.825 31.5 42.5 34.35 42.5 37.875C42.5 41.4 44.825 44.25 47.75 44.25C50.675 44.25 53 41.4 53 37.875C53 34.35 50.675 31.5 47.75 31.5Z" fill="#594A42"/>
<path d="M106.75 23.5C110.892 23.5 114.25 19.6385 114.25 14.875C114.25 10.1115 110.892 6.25 106.75 6.25C102.608 6.25 99.25 10.1115 99.25 14.875C99.25 19.6385 102.608 23.5 106.75 23.5Z" fill="#FBB040"/>
<path d="M106.75 25.75C101.35 25.75 97 20.875 97 14.875C97 8.875 101.35 4 106.75 4C112.15 4 116.5 8.875 116.5 14.875C116.5 20.875 112.15 25.75 106.75 25.75ZM106.75 8.5C103.825 8.5 101.5 11.35 101.5 14.875C101.5 18.4 103.825 21.25 106.75 21.25C109.675 21.25 112 18.4 112 14.875C112 11.35 109.675 8.5 106.75 8.5Z" fill="#594A42"/>
<path d="M171.75 29.5C175.892 29.5 179.25 25.6385 179.25 20.875C179.25 16.1115 175.892 12.25 171.75 12.25C167.608 12.25 164.25 16.1115 164.25 20.875C164.25 25.6385 167.608 29.5 171.75 29.5Z" fill="#FBB040"/>
<path d="M171.75 31.75C166.35 31.75 162 26.875 162 20.875C162 14.875 166.35 10 171.75 10C177.15 10 181.5 14.875 181.5 20.875C181.5 26.875 177.15 31.75 171.75 31.75ZM171.75 14.5C168.825 14.5 166.5 17.35 166.5 20.875C166.5 24.4 168.825 27.25 171.75 27.25C174.675 27.25 177 24.4 177 20.875C177 17.35 174.675 14.5 171.75 14.5Z" fill="#594A42"/>
</svg>
