<svg width="194" height="96" viewBox="0 0 194 96" fill="none" xmlns="http://www.w3.org/2000/svg">
<path d="M28.6585 71.1097L18.6773 92.9358C5.8879 84.4762 3.43868 79.3694 6.14217 73.4583C8.84566 67.5472 14.9738 66.443 28.6585 71.1097Z" fill="#FBB040" stroke="#594A42" stroke-width="4"/>
<path d="M51.2611 45.448L33.6295 61.7307C25.096 48.9906 24.8075 43.3342 29.5829 38.9245C34.3583 34.5148 40.4378 35.8613 51.2611 45.448Z" fill="#FBB040" stroke="#594A42" stroke-width="4"/>
<path d="M81.4346 27.9715L60.5466 39.7906C55.1528 25.4366 56.1655 19.8641 61.8228 16.6633C67.4801 13.4625 73.0905 16.1637 81.4346 27.9715Z" fill="#FBB040" stroke="#594A42" stroke-width="4"/>
<path d="M114.773 22.2451L91.0863 26.113C90.9882 10.7793 93.8651 5.9007 100.28 4.8534C106.695 3.80609 111.026 8.28049 114.773 22.2451Z" fill="#FBB040" stroke="#594A42" stroke-width="4"/>
<path d="M149.819 22.8438L125.944 20.3985C129.849 5.57021 133.899 1.61105 140.365 2.27357C146.831 2.9361 149.845 8.38528 149.819 22.8438Z" fill="#FBB040" stroke="#594A42" stroke-width="4"/>
<path d="M184.488 36.0806L162.944 25.5046C171.751 12.952 176.923 10.6438 182.758 13.5083C188.592 16.3729 189.528 22.529 184.488 36.0806Z" fill="#FBB040" stroke="#594A42" stroke-width="4"/>
</svg>
