<svg width="195" height="118" viewBox="0 0 195 118" fill="none" xmlns="http://www.w3.org/2000/svg">
<path fill-rule="evenodd" clip-rule="evenodd" d="M179.704 34.8566C174.744 47.7632 172.138 58.1718 171.95 68.0923C171.756 78.3902 174.165 88.4314 179.704 100.438C185.243 88.4314 187.652 78.3902 187.458 68.0923C187.27 58.1718 184.664 47.7632 179.704 34.8566ZM182.201 110.006C181.696 110.624 180.981 111.069 180.148 111.226C159.5 115.129 133.724 118 110.118 118C69.6928 118 22.9035 109.58 6.16775 101.978C0.392744 99.2884 -1.49297 90.8682 1.21775 78.5887C8.17133 47.0129 42.8214 0 110 0C140.172 0 163.806 9.48335 181.308 22.7922C182.104 23.1395 182.773 23.7817 183.135 24.6458C190.167 41.4026 194.208 54.8462 194.456 67.9599C194.706 81.1577 191.111 93.6688 183.528 108.586C183.217 109.198 182.751 109.679 182.201 110.006ZM110.118 110.983C132.136 110.983 155.217 108.447 174.162 105.104C167.754 91.6936 164.722 80.1182 164.952 67.9599C165.188 55.4639 168.869 42.6683 175.299 26.9917C159.09 15.2604 137.492 7.01685 110.118 7.01685C47.0642 7.01685 14.6535 50.7552 8.17132 80.109C5.93203 90.4004 7.81775 94.9614 9.11418 95.5461C23.0213 101.861 66.8643 110.983 110.118 110.983Z" fill="#594A42"/>
<path d="M37.2775 62.2948C36.6245 62.2948 35.9716 62.0772 35.4274 61.7507C33.9039 60.7712 33.5774 58.7035 34.5568 57.18C34.7745 56.8535 40.4335 48.4738 51.8603 40.203C53.2751 39.1147 55.3428 39.4412 56.431 40.8559C57.5193 42.2707 57.1928 44.3384 55.7781 45.4266C45.3307 53.0445 40.107 60.7712 40.107 60.7712C39.3452 61.8595 38.3658 62.2948 37.2775 62.2948Z" fill="#594A42"/>
<path d="M137.27 60.5281C136.509 60.5281 135.747 60.3104 135.203 59.7663C135.094 59.6574 120.62 47.7953 95.6986 47.7953C70.7772 47.7953 59.4592 59.4398 59.3504 59.5486C58.1533 60.8545 56.0855 60.8545 54.7796 59.6574C53.4737 58.4603 53.4737 56.3926 54.6708 55.0867C55.2149 54.5426 68.0565 41.3745 95.8074 41.3745C123.232 41.3745 138.903 54.3249 139.556 54.869C140.971 56.0661 141.079 58.1339 139.991 59.4398C139.12 60.0928 138.25 60.5281 137.27 60.5281Z" fill="#594A42"/>
<path d="M169.168 64.0689C168.079 64.0689 167.1 63.5247 166.447 62.6541C166.229 62.3276 144.355 31.6384 101.804 31.6384C89.6152 31.6384 77.9707 34.1415 67.3056 39.0387C65.6732 39.8005 63.7143 39.0387 62.9526 37.4063C62.1908 35.7739 62.9526 33.815 64.585 33.0532C76.1206 27.7207 88.6357 25 101.804 25C147.946 25 170.909 57.4304 171.888 58.8452C172.868 60.3688 172.541 62.3277 171.018 63.4159C170.474 63.8512 169.821 64.0689 169.168 64.0689Z" fill="#594A42"/>
</svg>
