<svg width="240" height="137" viewBox="0 0 240 137" fill="none" xmlns="http://www.w3.org/2000/svg">
<path d="M32.6122 68.0918L21.5752 89.4034C9.21498 80.3283 7.01853 75.1078 10.008 69.336C12.9974 63.5642 19.1722 62.7612 32.6122 68.0918Z" fill="#FBB040" stroke="#594A42" stroke-width="4"/>
<path d="M117.802 23.4054L93.9183 25.7664C94.7908 10.4572 97.9708 5.77048 104.439 5.1313C110.908 4.49213 114.946 9.23165 117.802 23.4054Z" fill="#FBB040" stroke="#594A42" stroke-width="4"/>
<path d="M68.5257 36.6651L48.523 49.9276C42.1305 35.9896 42.7478 30.3596 48.1653 26.7679C53.5829 23.1762 59.3698 25.4751 68.5257 36.6651Z" fill="#FBB040" stroke="#594A42" stroke-width="4"/>
<path d="M175.214 31.2036L152.297 24.0751C159.063 10.3149 163.818 7.23697 170.024 9.16786C176.231 11.0987 178.104 17.037 175.214 31.2036Z" fill="#FBB040" stroke="#594A42" stroke-width="4"/>
</svg>
