<svg width="124" height="107" viewBox="0 0 124 107" fill="none" xmlns="http://www.w3.org/2000/svg">
<path fill-rule="evenodd" clip-rule="evenodd" d="M96.173 24.0536L120.023 21.3789C116.982 7.2439 112.882 2.55787 106.422 3.28199C99.9624 4.00611 96.8443 8.73426 96.173 24.0536ZM17.4901 102.682L25.3407 80.0024C11.2728 76.6643 5.27815 78.3488 3.15169 84.4911C1.02522 90.6335 3.95108 95.4829 17.4901 102.682ZM81.298 29.2884L60.0202 40.3905C55.1176 25.8614 56.3192 20.3265 62.082 17.32C67.8449 14.3134 73.3602 17.2037 81.298 29.2884ZM32.9626 66.9215L48.3284 48.4853C36.3509 40.3866 30.148 39.8416 25.9863 44.8346C21.8245 49.8275 22.8457 55.3985 32.9626 66.9215Z" fill="#FBB040"/>
<path d="M120.023 21.3789L120.302 23.8633L123.049 23.5553L122.468 20.853L120.023 21.3789ZM96.173 24.0536L93.6754 23.9441L93.5474 26.8637L96.4516 26.538L96.173 24.0536ZM106.422 3.28199L106.143 0.797549L106.143 0.797549L106.422 3.28199ZM25.3407 80.0024L27.7031 80.8202L28.6073 78.2081L25.9179 77.57L25.3407 80.0024ZM17.4901 102.682L16.3163 104.889L18.8966 106.261L19.8525 103.5L17.4901 102.682ZM3.15169 84.4911L0.789253 83.6733L0.789253 83.6733L3.15169 84.4911ZM60.0202 40.3905L57.6515 41.1898L58.5858 43.9588L61.1767 42.6069L60.0202 40.3905ZM81.298 29.2884L82.4545 31.5049L84.9051 30.2262L83.3876 27.9159L81.298 29.2884ZM62.082 17.32L60.9256 15.1035L60.9256 15.1035L62.082 17.32ZM48.3284 48.4853L50.2488 50.0859L52.0186 47.9626L49.7287 46.4143L48.3284 48.4853ZM32.9626 66.9215L31.0839 68.5709L33.012 70.767L34.883 68.5221L32.9626 66.9215ZM25.9863 44.8346L24.0659 43.2339L24.0659 43.2339L25.9863 44.8346ZM119.745 18.8945L95.8944 21.5691L96.4516 26.538L120.302 23.8633L119.745 18.8945ZM106.7 5.76643C107.982 5.62274 109.009 5.76007 109.883 6.12417C110.756 6.48768 111.639 7.1451 112.53 8.29215C114.382 10.6748 116.075 14.9132 117.579 21.9048L122.468 20.853C120.93 13.7096 119.053 8.53753 116.479 5.2244C115.157 3.52358 113.614 2.26183 111.806 1.50864C109.999 0.756059 108.092 0.579172 106.143 0.797549L106.7 5.76643ZM98.6706 24.163C99.004 16.5556 99.9432 12.0219 101.341 9.35529C102.01 8.08008 102.753 7.29225 103.549 6.77709C104.355 6.2551 105.364 5.91629 106.7 5.76643L106.143 0.797549C104.251 1.00974 102.447 1.5335 100.831 2.58042C99.2038 3.63418 97.9151 5.12162 96.9127 7.03388C94.9688 10.7422 94.0133 16.2322 93.6754 23.9441L98.6706 24.163ZM22.9782 79.1846L15.1276 101.864L19.8525 103.5L27.7031 80.8202L22.9782 79.1846ZM5.51412 85.309C5.93606 84.0902 6.50202 83.2223 7.20686 82.59C7.91053 81.9588 8.88409 81.4445 10.303 81.1337C13.2505 80.4881 17.8051 80.7837 24.7635 82.4349L25.9179 77.57C18.8084 75.883 13.3317 75.3518 9.23323 76.2495C7.12924 76.7103 5.32619 77.5602 3.86818 78.8681C2.41133 80.1749 1.43054 81.8209 0.789253 83.6733L5.51412 85.309ZM18.6638 100.475C11.9405 96.8997 8.25241 94.1006 6.447 91.6912C5.58364 90.539 5.19268 89.5284 5.07 88.5887C4.94569 87.6366 5.07402 86.5802 5.51412 85.309L0.789253 83.6733C0.166126 85.4732 -0.137241 87.3264 0.112074 89.236C0.363016 91.1581 1.15099 92.9616 2.44566 94.6894C4.95631 98.0401 9.50068 101.265 16.3163 104.889L18.6638 100.475ZM61.1767 42.6069L82.4545 31.5049L80.1416 27.072L58.8638 38.1741L61.1767 42.6069ZM60.9256 15.1035C59.2369 15.9845 57.7441 17.1238 56.6145 18.6835C55.4775 20.2535 54.8124 22.1058 54.5677 24.2509C54.0931 28.4108 55.1834 33.8757 57.6515 41.1898L62.389 39.5912C59.9544 32.3762 59.1942 27.809 59.5354 24.8176C59.6986 23.3871 60.1081 22.3839 60.664 21.6164C61.2272 20.8387 62.0457 20.1587 63.2384 19.5365L60.9256 15.1035ZM83.3876 27.9159C79.376 21.8087 75.7584 17.6628 72.1619 15.502C70.3157 14.3928 68.4212 13.773 66.4632 13.723C64.5067 13.6732 62.6636 14.1968 60.9256 15.1035L63.2384 19.5365C64.3819 18.9399 65.3892 18.6973 66.3358 18.7214C67.2808 18.7455 68.3418 19.0399 69.5869 19.7879C72.1733 21.3419 75.2822 24.6835 79.2085 30.661L83.3876 27.9159ZM46.408 46.8847L31.0422 65.3209L34.883 68.5221L50.2488 50.0859L46.408 46.8847ZM27.9066 46.4353C28.7324 45.4445 29.5688 44.833 30.4517 44.4909C31.3332 44.1494 32.4257 44.0128 33.8629 44.224C36.8481 44.6628 41.0037 46.5505 46.9281 50.5563L49.7287 46.4143C43.6757 42.3215 38.7411 39.8873 34.59 39.2771C32.459 38.9639 30.4719 39.121 28.6455 39.8285C26.8206 40.5355 25.321 41.7281 24.0659 43.2339L27.9066 46.4353ZM34.8413 65.272C29.8173 59.5498 27.3579 55.6271 26.5215 52.7348C26.1216 51.3517 26.1134 50.2682 26.331 49.3458C26.5516 48.4113 27.0453 47.4686 27.9066 46.4353L24.0659 43.2339C22.8463 44.697 21.907 46.3231 21.4647 48.1974C21.0195 50.084 21.1186 52.0496 21.7183 54.1237C22.8814 58.1459 25.991 62.7701 31.0839 68.5709L34.8413 65.272Z" fill="#594A42"/>
</svg>
