<svg width="40" height="155" viewBox="0 0 40 155" fill="none" xmlns="http://www.w3.org/2000/svg">
<path fill-rule="evenodd" clip-rule="evenodd" d="M19.9587 13.8982C12.8144 33.5937 8.8736 56.7856 8.60542 79.5106C8.32674 103.125 12.0161 125.957 19.9587 143.692C27.9013 125.957 31.5906 103.125 31.312 79.5106C31.0438 56.7856 27.103 33.5937 19.9587 13.8982ZM19.9587 152.338C18.4413 152.834 16.747 152.165 16.001 150.697C6.09485 131.21 1.70671 105.525 2.01463 79.4328C2.3229 53.3111 7.34085 26.4586 16.5458 4.52133C17.1262 3.13823 18.54 2.35865 19.9587 2.52128C21.3774 2.35865 22.7912 3.13823 23.3715 4.52133C32.5765 26.4586 37.5945 53.3111 37.9028 79.4328C38.2107 105.525 33.8225 131.21 23.9164 150.697C23.1704 152.165 21.4761 152.834 19.9587 152.338Z" fill="#594A42"/>
<path d="M19.9587 13.8982L21.7665 13.2424L19.9587 8.25859L18.1509 13.2424L19.9587 13.8982ZM8.60542 79.5106L6.68247 79.4879L6.68247 79.4879L8.60542 79.5106ZM19.9587 143.692L18.2036 144.478L19.9587 148.397L21.7138 144.478L19.9587 143.692ZM31.312 79.5106L33.2349 79.4879L33.2349 79.4879L31.312 79.5106ZM19.9587 152.338L20.556 150.51L19.9587 150.315L19.3614 150.51L19.9587 152.338ZM16.001 150.697L17.7153 149.826L17.7153 149.826L16.001 150.697ZM2.01463 79.4328L0.0916822 79.4101L0.0916822 79.4101L2.01463 79.4328ZM16.5458 4.52133L18.3191 5.26541L18.3191 5.26541L16.5458 4.52133ZM19.9587 2.52128L19.7397 4.43184L19.9587 4.45695L20.1777 4.43184L19.9587 2.52128ZM23.3715 4.52133L25.1448 3.77725L25.1448 3.77725L23.3715 4.52133ZM37.9028 79.4328L39.8257 79.4101L39.8257 79.4101L37.9028 79.4328ZM23.9164 150.697L22.2021 149.826L22.2021 149.826L23.9164 150.697ZM18.1509 13.2424C10.9249 33.1632 6.95291 56.5719 6.68247 79.4879L10.5284 79.5333C10.7943 56.9993 14.7039 34.0242 21.7665 14.5539L18.1509 13.2424ZM6.68247 79.4879C6.40162 103.286 10.114 126.414 18.2036 144.478L21.7138 142.906C13.9182 125.499 10.2519 102.963 10.5284 79.5333L6.68247 79.4879ZM29.389 79.5333C29.6655 102.963 25.9991 125.499 18.2036 142.906L21.7138 144.478C29.8034 126.414 33.5158 103.286 33.2349 79.4879L29.389 79.5333ZM18.1509 14.5539C25.2135 34.0242 29.1231 56.9993 29.389 79.5333L33.2349 79.4879C32.9645 56.5719 28.9925 33.1632 21.7665 13.2424L18.1509 14.5539ZM19.3614 150.51C18.731 150.716 18.0251 150.435 17.7153 149.826L14.2867 151.569C15.4688 153.894 18.1515 154.952 20.556 154.166L19.3614 150.51ZM17.7153 149.826C7.99576 130.706 3.6319 105.357 3.93757 79.4555L0.0916822 79.4101C-0.21848 105.692 4.19394 131.714 14.2867 151.569L17.7153 149.826ZM3.93757 79.4555C4.24339 53.5416 9.2244 26.9399 18.3191 5.26541L14.7725 3.77725C5.4573 25.9773 0.402405 53.0805 0.0916822 79.4101L3.93757 79.4555ZM18.3191 5.26541C18.5597 4.69198 19.1476 4.36397 19.7397 4.43184L20.1777 0.610711C17.9324 0.353324 15.6926 1.58449 14.7725 3.77725L18.3191 5.26541ZM25.1448 3.77725C24.2247 1.58449 21.985 0.353324 19.7397 0.610711L20.1777 4.43184C20.7698 4.36397 21.3576 4.69198 21.5983 5.26541L25.1448 3.77725ZM39.8257 79.4101C39.515 53.0805 34.4601 25.9773 25.1448 3.77725L21.5983 5.26541C30.693 26.9399 35.674 53.5416 35.9798 79.4555L39.8257 79.4101ZM25.6307 151.569C35.7234 131.714 40.1359 105.692 39.8257 79.4101L35.9798 79.4555C36.2855 105.357 31.9216 130.706 22.2021 149.826L25.6307 151.569ZM19.3614 154.166C21.7659 154.952 24.4486 153.894 25.6307 151.569L22.2021 149.826C21.8922 150.435 21.1864 150.716 20.556 150.51L19.3614 154.166Z" fill="#5D4941"/>
</svg>
