<svg width="126" height="118" viewBox="0 0 126 118" fill="none" xmlns="http://www.w3.org/2000/svg">
<path fill-rule="evenodd" clip-rule="evenodd" d="M110.289 0.0119043C110.166 0.00168797 110.043 -0.00190875 109.921 0.000918031C42.7942 0.0377564 8.1686 47.0262 1.21775 78.5896C-1.49297 90.8691 0.392744 99.2893 6.16775 101.979C22.8039 109.535 69.1369 117.901 109.395 118C109.462 118.002 109.529 118.002 109.595 118C109.77 118.001 109.944 118.001 110.118 118.001C110.23 118.001 110.337 117.98 110.435 117.942C111.923 118.221 113.478 117.505 114.199 116.087C121.958 100.822 125.367 80.7752 125.127 60.4856C124.887 40.1643 120.985 19.2562 113.806 2.14662C113.204 0.712716 111.759 -0.110403 110.289 0.0119043ZM110.289 12.6429C105.365 27.2084 102.646 44.042 102.451 60.5683C102.247 77.8725 104.811 94.5724 110.289 107.833C115.767 94.5724 118.332 77.8724 118.128 60.5683C117.933 44.042 115.214 27.2084 110.289 12.6429ZM95.4513 60.4857C95.238 78.561 97.9199 96.4438 103.994 110.924C62.7932 110.129 22.3651 101.564 9.11418 95.547C7.81775 94.9623 5.93203 90.4013 8.17132 80.1099C14.4692 51.5904 45.2427 9.49252 104.815 7.12242C98.8849 23.2238 95.6683 42.095 95.4513 60.4857Z" fill="#594A42"/>
<g clip-path="url(#clip0_87_93)">
<path d="M137.27 60.5281C136.509 60.5281 135.747 60.3104 135.203 59.7663C135.094 59.6574 120.62 47.7953 95.6986 47.7953C70.7772 47.7953 59.4592 59.4398 59.3504 59.5486C58.1533 60.8545 56.0855 60.8545 54.7796 59.6574C53.4737 58.4603 53.4737 56.3926 54.6708 55.0867C55.2149 54.5426 68.0565 41.3745 95.8074 41.3745C123.232 41.3745 138.903 54.3249 139.556 54.869C140.971 56.0661 141.079 58.1339 139.991 59.4398C139.12 60.0928 138.25 60.5281 137.27 60.5281Z" fill="#594A42"/>
<path d="M169.168 64.0689C168.079 64.0689 167.1 63.5247 166.447 62.6541C166.229 62.3276 144.355 31.6384 101.804 31.6384C89.6152 31.6384 77.9707 34.1415 67.3056 39.0387C65.6732 39.8005 63.7143 39.0387 62.9526 37.4063C62.1908 35.7739 62.9526 33.815 64.585 33.0532C76.1206 27.7207 88.6357 25 101.804 25C147.946 25 170.909 57.4304 171.888 58.8452C172.868 60.3688 172.541 62.3277 171.018 63.4159C170.474 63.8512 169.821 64.0689 169.168 64.0689Z" fill="#594A42"/>
</g>
<path d="M37.2775 62.2948C36.6245 62.2948 35.9716 62.0772 35.4274 61.7507C33.9039 60.7712 33.5774 58.7035 34.5568 57.18C34.7745 56.8535 40.4335 48.4738 51.8603 40.203C53.2751 39.1147 55.3428 39.4412 56.431 40.8559C57.5193 42.2707 57.1928 44.3384 55.7781 45.4266C45.3307 53.0445 40.107 60.7712 40.107 60.7712C39.3452 61.8595 38.3658 62.2948 37.2775 62.2948Z" fill="#594A42"/>
<defs>
<clipPath id="clip0_87_93">
<rect width="49.1237" height="39.117" fill="white" transform="translate(52.876 25)"/>
</clipPath>
</defs>
</svg>
