<svg width="195" height="118" viewBox="0 0 195 118" fill="none" xmlns="http://www.w3.org/2000/svg">
<path fill-rule="evenodd" clip-rule="evenodd" d="M179.704 34.8566C174.744 47.7632 172.138 58.1718 171.95 68.0923C171.756 78.3902 174.165 88.4314 179.704 100.438C185.243 88.4314 187.652 78.3902 187.458 68.0923C187.27 58.1718 184.664 47.7632 179.704 34.8566ZM182.201 110.006C181.696 110.624 180.981 111.069 180.148 111.226C159.5 115.129 133.724 118 110.118 118C69.6928 118 22.9035 109.58 6.16775 101.978C0.392744 99.2884 -1.49297 90.8682 1.21775 78.5887C8.17133 47.0129 42.8214 0 110 0C140.172 0 163.806 9.48335 181.308 22.7922C182.104 23.1395 182.773 23.7817 183.135 24.6458C190.167 41.4026 194.208 54.8462 194.456 67.9599C194.706 81.1577 191.111 93.6688 183.528 108.586C183.217 109.198 182.751 109.679 182.201 110.006ZM110.118 110.983C132.136 110.983 155.217 108.447 174.162 105.104C167.754 91.6936 164.722 80.1182 164.952 67.9599C165.188 55.4639 168.869 42.6683 175.299 26.9917C159.09 15.2604 137.492 7.01685 110.118 7.01685C47.0642 7.01685 14.6535 50.7552 8.17132 80.109C5.93203 90.4004 7.81775 94.9614 9.11418 95.5461C23.0213 101.861 66.8643 110.983 110.118 110.983Z" fill="#594A42"/>
</svg>
